<svg xmlns="http://www.w3.org/2000/svg" viewBox="0 0 1200 1200"><defs><style>.cls-1{fill:#ea9111;}.cls-2{fill:#7a6648;}.cls-3{fill:#a0937f;}.cls-4{fill:#fcf9f8;}.cls-5{fill:#f4ebea;}.cls-6{fill:#7a6649;}.cls-7{fill:#7b684a;}.cls-8{fill:#7b674a;}.cls-9{fill:#7a6749;}.cls-10{fill:#7b684b;}.cls-11{fill:#7d6a4d;}.cls-12{fill:#837156;}.cls-13{fill:#eae7e2;}.cls-14{fill:#e0dcd5;}.cls-15{fill:#a89c88;}.cls-16{fill:#cec7bb;}.cls-17{fill:#dcd8d0;}.cls-18{fill:#efedea;}.cls-19{fill:#dfdbd4;}.cls-20{fill:#dfdbd3;}.cls-21{fill:#c2b9ab;}.cls-22{fill:#988974;}.cls-23{fill:#a99d89;}.cls-24{fill:#8e7e64;}.cls-25{fill:#ada28f;}.cls-26{fill:#dbd6cd;}.cls-27{fill:#968670;}.cls-28{fill:#cfc9bd;}.cls-29{fill:#f3eae8;}.cls-30{fill:#eee6e4;}.cls-31{fill:#b0a492;}.cls-32{fill:#aea18f;}.cls-33{fill:#ab9e8b;}.cls-34{fill:#8c7c62;}.cls-35{fill:#b9ad9e;}.cls-36{fill:#908068;}.cls-37{fill:#ada18f;}.cls-38{fill:#baaf9f;}.cls-39{fill:#b3a898;}.cls-40{fill:#9b8d77;}.cls-41{fill:#9e917c;}.cls-42{fill:#b0a593;}.cls-43{fill:#b5aa9a;}.cls-44{fill:#c0b7a9;}.cls-45{fill:#c9c2b5;}.cls-46{fill:#edbc99;}.cls-47{fill:#f4ede9;}.cls-48{fill:#9d8f7a;}.cls-49{fill:#f1efec;}.cls-50{fill:#c4b9ab;}.cls-51{fill:#efece9;}.cls-52{fill:#f7e7dc;}.cls-53{fill:#c1b9aa;}.cls-54{fill:#b3a897;}.cls-55{fill:#9b8b75;}.cls-56{fill:#c8c0b3;}.cls-57{fill:#f1d7c4;}.cls-58{fill:#a69985;}.cls-59{fill:#f2edeb;}.cls-60{fill:#d2ccc2;}.cls-61{fill:#988872;}.cls-62{fill:#f0efec;}.cls-63{fill:#bdb4a5;}.cls-64{fill:#ddd9d1;}.cls-65{fill:#fafaf9;}.cls-66{fill:#e3ded8;}.cls-67{fill:#9c8e78;}.cls-68{fill:#c7bfb1;}.cls-69{fill:#c6bcae;}.cls-70{fill:#d2cbc0;}.cls-71{fill:#eee8e4;}.cls-72{fill:#e5e2dc;}.cls-73{fill:#decfc1;}.cls-74{fill:#93826b;}.cls-75{fill:#a69986;}.cls-76{fill:#d9d4cb;}.cls-77{fill:#f0cdc4;}.cls-78{fill:#eccac1;}.cls-79{fill:#f0cbb1;}.cls-80{fill:#e6e2dc;}.cls-81{fill:#f1cfb7;}.cls-82{fill:#eec1a1;}.cls-83{fill:#f5e1d3;}.cls-84{fill:#f2d5c0;}.cls-85{fill:#f9ede6;}.cls-86{fill:#aea28f;}.cls-87{fill:#8f7f65;}.cls-88{fill:#c8bfb2;}.cls-89{fill:#efc5a8;}.cls-90{fill:#b8ab9b;}.cls-91{fill:#f5dece;}.cls-92{fill:#f8e9e0;}.cls-93{fill:#fcf8f6;}.cls-94{fill:#c5bcae;}.cls-95{fill:#f3d9c6;}.cls-96{fill:#f1d0b9;}.cls-97{fill:#eec4a6;}.cls-98{fill:#7f6c4f;}.cls-99{fill:#918069;}.cls-100{fill:#f7e6dc;}.cls-101{fill:#f6e5da;}.cls-102{fill:#f2d3be;}.cls-103{fill:#f2d3bd;}.cls-104{fill:#c1b7a8;}.cls-105{fill:#faf9f9;}.cls-106{fill:#f5f4f3;}.cls-107{fill:#c8bdb1;}.cls-108{fill:#a39580;}.cls-109{fill:#cac2b6;}.cls-110{fill:#b7ac9c;}.cls-111{fill:#aca18e;}.cls-112{fill:#beb0a2;}.cls-113{fill:#e7e3de;}.cls-114{fill:#918068;}.cls-115{fill:#bfb6a7;}.cls-116{fill:#e3dfd9;}.cls-117{fill:#f4f3f0;}.cls-118{fill:#806f52;}.cls-119{fill:#87765c;}.cls-120{fill:#e2ded7;}.cls-121{fill:#e4dfda;}.cls-122{fill:#c1b8aa;}.cls-123{fill:#d5cfc6;}.cls-124{fill:#fbf7f5;}.cls-125{fill:#fbf6f3;}.cls-126{fill:#faf3ee;}.cls-127{fill:#fbf5f1;}.cls-128{fill:#fbf5f2;}.cls-129{fill:#f3d6c2;}.cls-130{fill:#faf1eb;}.cls-131{fill:#f7e7dd;}.cls-132{fill:#f8ece5;}.cls-133{fill:#f7e8de;}.cls-134{fill:#f8ece4;}.cls-135{fill:#f6e5d9;}.cls-136{fill:#f2d5c1;}.cls-137{fill:#f4dccb;}.cls-138{fill:#f5e0d2;}.cls-139{fill:#efc7aa;}.cls-140{fill:#faf2ed;}.cls-141{fill:#f9efe8;}.cls-142{fill:#f9f0ea;}.cls-143{fill:#f8ebe3;}.cls-144{fill:#faf2ec;}.cls-145{fill:#f3d7c4;}.cls-146{fill:#f7e6da;}.cls-147{fill:#f9f0e9;}.cls-148{fill:#f3d9c7;}.cls-149{fill:#f3d8c5;}.cls-150{fill:#f3d7c3;}.cls-151{fill:#f4dbca;}.cls-152{fill:#f2d4bf;}.cls-153{fill:#927c62;}.cls-154{fill:#9d856f;}.cls-155{fill:#846f54;}.cls-156{fill:#bea18f;}.cls-157{fill:#dabaac;}.cls-158{fill:#caab9c;}.cls-159{fill:#8e785f;}.cls-160{fill:#ac917e;}.cls-161{fill:#ac927d;}.cls-162{fill:#b8ad9e;}.cls-163{fill:#908066;}</style></defs><g id="Layer_2" data-name="Layer 2"><g id="Layer_2-2" data-name="Layer 2"><rect class="cls-1" width="1200" height="1200"/></g><g id="Graphic_Element" data-name="Graphic Element"><path class="cls-2" d="M794.7,420.84c7.87,6.18,18.37,9.09,23.1,19.19,1.79,3.82,5.1,4.44,8.63,1.76,11.8-9,23.86-17.51,36.5-25.29,11.61-7.15,22.63-15.82,34.62-21.68,15.53-7.59,27.32-19.76,41.81-28.37,15.66-9.31,31.69-16.31,50.48-16.28,6.88,0,13.58-1.3,20.07,2,19,9.63,34.59,22.14,36.9,45.16.67,6.61,5.53,11.47,5,18.86-1.45,19.57-7.83,37.22-17.42,54-.4.7-1.76.85-2.67,1.26l-1.71-4.59q.74-2.66,1.49-5.31c1.12-1.49,3.42-2.3,2.8-4.8l3.63-10.74a9,9,0,0,0,3.06-6.27c1.92-1.62-.52-3.1-.14-4.67,3.7-2.56-.37-5.21.1-7.8,3,.15,4.84-1.05,4.51-4.35-.29-2.83.83-6.55-4-6.68q-.36-7.74-.71-15.48c2.65-2.82-.38-4.28-1.5-6.2-5.42-4.95-5-13.06-10.68-18.25-9.06-8.29-19-13.79-31.35-14.51-7.41-2.22-14.62-1.1-21.74,1.34-2-2.59-2-2.59-7.93,1.69-5,3.06-11.26,3.5-15.55,7.89a3.18,3.18,0,0,0-1.4.46c-3.46-2.72-4.39-.42-5,2.53-4.08,2.11-8.81,3.49-12.1,6.46-13.17,11.87-28.25,21.37-41.2,33.38-9.34,8.67-19.89,15.41-30.52,22.1-9.38,5.91-17.43,13-23.73,22.07-11.12,4.52-22.23,9.33-32.8,14.78-12.06,6.21-22,16.52-33.93,23.06-17,9.29-32.88,20.24-49.53,30-5.15,3-10.44,6.92-18.43,2.81,10.45-3.76,15.38-13.42,24.66-17.6,4.94-2.22,10-4.33,14.57-7.21,24.7-15.6,47.5-33.69,69.34-53.07,3.82-3.39,2.54-4.5-.75-6.44-5.88-3.47-12.35-6.19-17.84-10a68.73,68.73,0,0,0-31.4-12c-4.08-3.51-9-4.52-14.18-4.6-1.18-1.75-2.9-1.71-4.7-1.45-5.66-1.41-11.28-3.11-17.22-2.86-14.85-3.37-29.83-5.47-45.11-4.68l-12.52-.14c-6-2.52-12.71-1.54-18.85-5.85s-15.26-2.29-22.87-2.49c-20.65-.56-40.73,5.26-61.11,8l-17.06,1.75-9.43-.06-4.81.12c-9.1-3.11-18.5-1.7-27.81-1.88-1-1.46-2.34-3.69-4-1.94-2.58,2.74-5.57,1.72-8.44,2.08-4.32,1.17-9.18,1.12-13.06,2.34-19.86,6.2-40.43,11-57.62,23.83-2.73,2-5.72,2.22-8.58-.37a17.83,17.83,0,0,1,2.26-3.11c11.83-10.78,26-17.44,41-22.16,6.56-2.06,13.75-2.06,20.31-4.09,20.59-6.36,42.09-5.08,63.08-7.94,13.85-1.89,28-1.44,41.94-3.65,5.47-.86,10.92-5,16.26-2.74,8.89,3.74,17.45.49,26.14.45,4.36,0,6-1.79,5.37-6.12-1.65-12.29,2.65-24.36-1-37.16-4.34-15.42-3.24-32-14.1-45.95-8.64-11.09-14.72-24.19-26.92-32.3-1.41-4.62-4.29-7.43-9.34-7.57-2.27-1.61-.47-9-6.85-4.86-.09.06-.76-.59-1-1-3.29-5.13-9.86-7.54-11.17-13.93-3-.1-3,3.83-6,3.44,1.87-23.45-5.18-44.92-14.61-65.85,1-1.56,1.54-3.15.32-4.86a4.11,4.11,0,0,0-4.71-3.14l-1.58-3.06c-1-3-1.86-6-4.47-8.07a5.37,5.37,0,0,0-3.34-2.84c-2.78-3.34-5.29-6.94-8.94-9.45-6.27-4.29-14.75-2.68-17.44,4a82.25,82.25,0,0,1-4,8c-7.46,14-3.89,29.5-6.66,44.09-3.2,9.42-5.26,19.1-4.16,29a29.13,29.13,0,0,1-2.34,15.74L480,247.25c1.9-2.2.32-3.28-1.52-4.76-1.46,3.09-.45,5.46.92,7.79.26,1.54.26,3.18,1.81,4.15,1,4.42-4.27,6.87-3.19,11.72,1.3,5.86-1.36,11-5.93,14.92-8.08,2.69-15.83,7.42-24.9,4-1.61-3.15-5,2.42-6.5-1.31l.15-3.14a10.22,10.22,0,0,0-.1-1.1c3-.34,5.93-.78,9.12-.16,10.18,2,17.64-4.61,20.89-14.81,4.82-15.12,4.73-30.81,4.7-46C475.38,190.41,485.34,166,498,142c1.88-3.57,6.1-4.55,8.25-7.77H514c17.43,10.2,27.53,26.19,35.49,44.09,4.22,9.49,9.41,18.55,12.28,28.61,3.4,11.92,9.47,23.12,9.3,36-.06,4,2.61,8.31,5.55,9.73,7.25,3.51,11.5,10.42,18.26,14.24,1.28,1.83,1.9,4.35,4.73,4.57,4.25,4.46,7.25,10.24,14.43,11.29,3.49.5.57,3.84,1.25,5.75.21,3,1,5.09,4.59,3.22a3.62,3.62,0,0,0,4.12.09c10.44-5.48,22-8.08,33.13-11.54,1.89,1.52,4.85,3-.09,4.47-1.73.52-2.35,2.23-2.61,4-.44.92-.92,2.66-1.31,2.64-8.57-.48-14.36,7-22.75,7.58-6.86.43-7.76,3.47-3.67,8.6a38,38,0,0,1,2.28,3.1c2.41,3.72,2.15,10.75,7.43,10.63a34.54,34.54,0,0,0,19.12-6.86c1.76-1.28,3.22-2.93,5.26-4,1.84-.94,3.12-4.37,5.59-1.53,1.66,1.92-.52,4.12-1.1,6-2.55,8.37-11.64,9.9-16.91,15.51-4-.93-8.73-3.84-11.13,1.54-2.14,4.78,3.49,16.21,7.62,17.46,10.32,3.61,20.61,6.22,31.15.49,2.37-1.29,5.23-1.7,7.87-2.51-.15,1.48.11,2.77,1.64,3.45l-1.41,1.73c-3,1.15-6.63,1.74-6.23,6.29a98.78,98.78,0,0,1-23.48,4.37,32.88,32.88,0,0,0-16.11-5.42c1.67,7.47.38,14.87,1.36,22,.53,3.84-4.92,8.31.28,10.84,3.7,1.8,8.47,1.4,12.77,2,14.51,3.08,29.32,1.72,44,2.57,16.93,1,33.1,6,49.85,7.57,3.39.32,5.33,4.07,9,3.68,0,.61,0,1.21,0,1.82-.88.51-1.94,1.19-1.47,2.26,1,2.2,3,.84,4.56,1,3.63,2.57,7.31,1.36,11,.13,1.38,2.75,3.19,3.83,5.86,1.49.5,5.67,6.86.8,8.36,4.66-.52.43-3.36,0-.92,1.51a8.8,8.8,0,0,0,7.14,1.35Zm-56.25-15.17a2.23,2.23,0,0,0-2.7,1.94c0,1.86,2,2,3.34,2.26,2,.39,3.58-.21,2.65-2.84,1.37-.07,3,1.37,4.88-1.36ZM849,435.14c2-.26,4.29,0,5-2.63C851.34,432.1,849.8,433,849,435.14Zm-19.55,14c2.67-.85,5-.86,5.41-4.22C831.49,444.31,830.31,445.94,829.4,449.14ZM806.93,465c4.05-1.58,5-3,4.41-6.56Zm-97.65-64.16-1.44,1.51c.51.45,1,1.21,1.56,1.28.91.11,2.31.12,1.84-1.47C711.09,401.67,710.1,401.39,709.28,400.87ZM517.82,139.67c-2.38-.94-4.05-1.86-5.47.28C514,140.6,515.64,141.14,517.82,139.67Z"/><path class="cls-3" d="M833.82,1052.44a2.5,2.5,0,0,1-.28,1.34h-9.35a2.7,2.7,0,0,1-.36-1.24Z"/><path class="cls-4" d="M952,372.71c4.29-4.39,10.58-4.83,15.55-7.89a12,12,0,0,0,7.93-1.69c7.12-2.44,14.33-3.56,21.74-1.34,2.95,7,6.32,13.64,13.67,17,14.2,6.45,21,17.92,24,32.81,1,5.22-.32,10.89,2.76,15.71l.28-.19c-.08,2.13-.16,4.25-.25,6.38.61,2.83-3.32,3.51-3,6.23-.57,1.54-1.15,3.08-1.72,4.61-1.3,2-4.33,3.3-2.84,6.45.1.2,1.58-.43,2.39-.36,4.15.36,1-3.26,2.44-4.38l2.93,0-3.63,10.74c-2,2-4.07,1.26-6,0-2.74-1.72-4.46-.55-5.93,1.75-2.67,2.4-5,4.87-1.76,8.51l-4.5,2.64c-.57-.95-1.53-1.89-2.48-1.31-20.3,12.26-41.4,23.21-56.47,42.73-6.53,8.44-13.5,16.8-22.36,23.51-9,6.82-19.42,12.08-26.5,21.32-2.64,3.43-6.72,6.41-4.37,11.73-10.5,8.75-23.26,13.78-35,20.43-14.7,8.35-28.8,18.21-45.31,23.09-1.24.37-2.69.29-2.77,2-.09,1.86,1.32,2.54,2.76,3.3,2.28,1.22,4-.48,5.83-1,13.2-3.74,24.24-12,36.38-18s24.06-13,36.16-19.4c0,1.26,0,2.52,0,3.79-4.32,1.38-4.65,3.54-2.37,7.47,2.14,3.69,5.81,7.33,5.32,11.72-1.5,13.6,6.41,24.45,10.6,36.15,4,11.3,10.92,21.83,12.65,33.83,3.57,24.71,2.2,49.49-1.21,74.16-5.6,9.43-7.53,20.22-11.19,30.37-10,27.87-22.93,54.77-29.08,84C881,875.34,872.23,889.7,865.44,905c-4.52,10.15-10.57,20.11-10.26,31.94-3.52-4.12-3.77.24-4.63,1.94-8.4,16.65-14,34.29-18.57,52.33-3,11.84-9.89,20.47-22.05,23.48-4,1-3.75,4.5-5.91,6.4-.47-2.07.93-4.67-1.69-6.15-4.25-9.33-5.7-19.44-8.29-29.23-4.12-15.51-7.07-31-7.62-47.13-.42-12.22,1.56-24.77-3.11-36.68-.73-1.87-.65-4.29-3.71-3.94-3.38.38-2.15,3-2.25,4.78-.27,5.15,0,10.35-.66,15.44s2.54,11-2.52,15.34c7.06,3.46,3.87,11.1,5.61,16.39,3.66,11.14,2.21,23.81,6.53,35.1,4.1,10.7,3,22.59,8.18,32.94a7.06,7.06,0,0,0-1.26.39c-1.18-2.8-3.61-3-6.24-3.65-6.72-1.61-13.87-1.3-20.23-4.47,0-5,3.69-9.57,2.32-15.85-3.92,5.74-7.19,10.54-10.45,15.33-1.1-2-3-2.87-5-3.53-7.41-2.55-12.63-7.59-17.18-13.8C722.36,973.06,715,950,701.11,930.56c2.2-.13,4.85.32,4.17-3.37,1-4.12-2.64-6.08-4.21-9L698.69,915a59.81,59.81,0,0,0-5.12-11.32c-4.68-8.41-7.6-17.58-10.37-27-4.38-14.93-6.5-30-9.16-45.16-.37-2.08,2.47-5.78-2.09-6-4.08-.14-5.92,2.59-5.41,6.65,2,15.71,1.56,31.77,6.57,47.06-3.06,3.89.72,3.88,2.77,4.86,3.41,5.18,4.44,11.31,6.78,16.92.06,2.93-.95,6.24,2.85,7.8,2.55,2.79,5.35,5.24,9.06,6.39-1.73,2.22.48,3.15,1.46,4.48-1.75,1.73,1.17,3.1.37,4.75-12-5.48-24-10.91-36-16.45-18.82-8.71-37.95-16.49-58.43-20.53-16.89-3.32-30,2.06-38,16.84-9.39,17.29-8.36,36.55-8.53,55.24-.07,8.17,1.26,16.62.38,24.76-2,18.49-10,22.08-24.41,20.89-13.63-1.11-24.42-8.86-31.46-20.48-12.52-20.66-22.15-42.86-33.06-64.38-4.68-9.22-7.82-19.38-13.51-27.87Q427.65,854,404.86,813.87a797.74,797.74,0,0,1-63-140.1c-5-14.9-8.34-30.17-11.71-45.47-1.63-32.37,4.18-63.18,18.15-92.61,15.48-32.62,38-59.74,64.29-83.87,6.77-6.21,13.8-12.47,23.12-15.24,11.89-3.54,23.86-7,35.41-11.51,10.77-4.18,22.14-7.08,32-13.42l3.15-1.73c9.31.18,18.71-1.23,27.82,1.88.08,2.09.22,4.16-2,5.5-9.72,6-15.94,15.32-22.44,24.3-11.44,15.79-20.54,32.43-17.61,53,.84,6-1.89,10.34-6.08,14.37-7.63,7.35-15.14,14.74-21,23.83-12.37,19.25-21.09,39.33-21.44,62.88-.12,8.06,3.59,14.82,3.61,22.61,0,13.91-2.1,27.64-2.42,43.55,5.6-9.55,13.3-15.71,14.68-25.78a3,3,0,0,0,1.57-3.08c13.73,1.29,22.1-5.5,27.88-17.42,7.28-15,12.51-30.51,14.12-47.15.78-8,1.3-16.8,6.69-22.53,6.24-6.62,10.2-14,13.66-22,2.31,1.51,3.92.38,5.14-1.51,4-6.24,8-12.52,11.91-18.78l3-6.26c4.87-9.72,10.75-18.78,13.81-29.57,2.42-8.51,7.8-16.37,7.54-25.56-.2-7.33,6-12.89,4.27-20.73-.88-4-4.6-7-3.65-11.5,20.38-2.71,40.46-8.53,61.11-8,7.61.2,16.68-1.87,22.87,2.49s12.81,3.33,18.85,5.85c-.18.87-.46,2.72.25,2.35,3.92-2,8.58.51,12.27-2.21,15.28-.79,30.26,1.31,45.11,4.68-8.43,7-16.83,14-23.22,23-7.15,4.92-11.84,12.09-17.18,18.67-2.37,2.72-4.89,5.36-4.68,9.37-6.75,7.86-14,15.31-12.88,27.14.35,3.83-1.69,7.88-2.64,11.83-2.49,1.52-.47,3.09-.06,4.65-3.8,5.56-6.38,11.42-5.32,18.43.65,4.25,3.08,8.11,2.31,12.71-.58,3.44.07,6.94,3.56,8.72s6.45.08,9-2.42h1.43c.64,1,1.18,2.61,2.51,1.85.64-.37.42-2.23.59-3.42l-.09.08,4.73-.09c3.56-.51,4-2.13,1.67-4.72.52-4.58.61-9.26,1.66-13.72,2.38-10.17,3-21.74,8.5-29.93S706.6,479.87,714,472.58c6.65-6.53,12.57-13.76,16.76-22.17,1.66-3.34,3.24-4.08,7.12-3.15,12,2.89,22.87-9.56,19.28-21.57,1.17-1.81,3.08-1.37,4.78-1.6a68.73,68.73,0,0,1,31.4,12c5.49,3.8,12,6.52,17.84,10,3.29,1.94,4.57,3.05.75,6.44-21.84,19.38-44.64,37.47-69.34,53.07-4.56,2.88-9.63,5-14.57,7.21-9.28,4.18-14.21,13.84-24.66,17.6,8,4.11,13.28.21,18.43-2.81,16.65-9.75,32.55-20.7,49.53-30,11.94-6.54,21.87-16.85,33.93-23.06,10.57-5.45,21.68-10.26,32.8-14.78,1.22,1.94,2.84,1.39,4.75,1.19,17.65-1.85,29.92-13.39,42.44-24C908.33,417.39,927.92,394,952.44,376,953.76,375,955.9,373.29,952,372.71ZM837.94,664c-2.76.78-6.38-.59-7.94,3.18-5.76-3.29.09-5.22,1.08-7.51.69-1.59,3.66-2.2,1.1-4.76-2.24-2.25-4-.59-5.36.59-4.29,3.84-6.81,9.11-8.66,14.29-3.77,10.51-3.81,10.8-11.91,3-1.59-1.53-2.6-3.65-3.88-5.5,1.39-2.56.48-4.84-2.07-5a2.82,2.82,0,0,0-1.13,5c.57,4.16.05,8.85,4.34,11.45,4.67,2.83,3.07,5.5.16,8.3-1.29,1.25-2.94,2.38-2.86,4.34.07,1.74-3.51,3.59-.14,5.07,2.06.91,3.73-.38,5.24-2.12,7.4-8.57,7.45-8.53,13.63,1.12-3.38,2-7.21,2.3-10.95,3.06-16,3.29-31.64,7.52-41.93,21.88-5.23,12-13.9,22.7-11.24,37.53a35.5,35.5,0,0,0,12.12,20.56c4.64,3.83,12.29,6.92,19.24,8.78,7.09,8.22,15.12,10,24.65,5.68,8.28-3.72,15.28-9.22,22.06-15.1l7.82.1c4.3,3.27,4.57.15,4.81-3,2.91-1.4,4.29-6.52,9-3.54,1.49.94,2.39-.38,2.68-1.73,1.25-5.79,6.92-9.1,8.43-14.47,1.57-5.6,4-11.52,2.25-17.36-1.64-5.5-4.59-10.6-7-15.88,3.43-6.5.51-10.9-4.93-14.22a41.89,41.89,0,0,0-17.52-5.64c-6.17-.67-11.44-2.56-14.61-8.33a5.43,5.43,0,0,1-.92-7.1c1.4-2.15,4.35-1,6.51-.46,2.74.62,5.33,1.89,8,2.75,1.49.48,3.22,2.48,4.53-.23s.28-4.53-2.17-5.74c-3.72-1.85-7.49-3.6-11.1-5.32l4.18-7.24c3.5.05,5.57-2.52,8-4.36,1.84-.43,4.87.25,4.59-2.53-.15-1.42-2.7-3.16-4.84-.9C840.06,662.71,838.68,662.51,837.94,664ZM570.12,514.48c-2.88,2.21.59,4.26.16,6.41l-.36,4.55-2.84,3.07c-4.37,3.8-3,9.48-4.63,14.16-.33,3.59-.88,7.2-1.19,10.75-.54,6.29-4.21,12.26.13,19.42,1.46,2.41,4.17,8.86,2.1,13.26-6.34,13.43-11,27.7-20.62,39.54-3.62,4.44-6.18,10.85-2.75,16.57,3.17,5.28,9.17,5.74,14.66,4.24s8.09-6.74,11.49-10.87c.57-.69-.09-4.3,2.15-1.94,1,1.06,4.24.1,3.25,3.18-.61,1.9.27,3.85-.06,6-.61,4,.18,8.17.61,12.26a2.22,2.22,0,0,0,2.61,2.21c1.29-.21,1.48-1.4,1.49-2.38.07-9.34,8.79-17.57,3.55-27.71-.47-.9,1-2.8,1.54-4.25,2-5.55,8.4-8.39,8.53-15.37a93.3,93.3,0,0,1,1.29-14.39,244.3,244.3,0,0,1,21.47-65.3c10-20.36,19.67-40.79,27.41-62.12a61.69,61.69,0,0,1,8-15c3.68,1,4.61.3,4.74-3.33.15-4.64,8.09-4.93,6-10.81.66-2.34,4.36-3.69,2.46-7.25-2.75,2-5.31,3.74-5.5,7.26-3.57,1.66-5.24,5.21-7.82,7.86-2.33-5.72-.23-13.14-6.66-17.36-.31-.21.35-1.88.56-2.87,1.94-1.86,2.44-5,1-6.17-1.89-1.54-3.08,1.42-4.29,2.85-24.59,19.62-50.39,56.69-50.31,72.26,3.37-.77,5.49-4.44,10.37-4.61-3.15,8.51-6.16,16-12.91,21.31l-1.75,0q.15-3.08.31-6.16c1.72-1.79,1.67-4.93,5.62-5.55-4-1.35-6-.24-7.38,2.23l-4.85,3.27C574.36,506.68,571.35,510,570.12,514.48Zm94-87.4c2.93-3,4.86-6.43,8.61-7.67a1.64,1.64,0,0,0,1.07-2.42,2.69,2.69,0,0,0-1-1c-2.79,2-6.36,1.41-9,2.48C661.33,419.47,662.42,423.66,664.15,427.08Zm-14.92-14.75c-2.35,1-3.84,2.06-3.65,4.57C648.18,416.65,649.71,415.79,649.23,412.33Z"/><path class="cls-5" d="M503.13,411.65c-9.88,6.34-21.25,9.24-32,13.42-11.55,4.5-23.52,8-35.41,11.51-9.32,2.77-16.35,9-23.12,15.24-26.33,24.13-48.81,51.25-64.29,83.87-14,29.43-19.78,60.24-18.15,92.61l-12.24,0c.79-8.52.91-17.2,1.57-25.57,1.19-15.1,5.6-30.07,10.66-44.59,11-31.65,28.28-59.7,49.86-85.13,2.26-2.66,1.21-8.83,7.36-7.85-.13-2.27.29-4.68-1.14-6.68-2.08-2.89-4.52-1.85-6.8-.32-10.33,6.95-18.36,16.38-26.6,25.49-9.8,10.85-15.78,24.06-21.12,37.46-3.55,8.9-5.43,18.52-9.41,27.2-8.47,18.5-12.76,38-15.68,57.9-1.38,2-3.84,3.66-1.9,6.6,1.26,8.91,2.63,17.82.77,26.82,1.1-8.32-2.83-10.89-10.66-9.87-10.22,1.34-18.48-3.38-26.24-9.33-31.66-24.22-59.57-52-81.28-85.64-1.17-1.82-1.95-4.43-4.81-4.67.41-4.34-3.24-6.85-4.67-10.36-10.1-24.76-13.87-50.16-7.08-76.41,2.78-10.78,3.79-22.14,11.55-31.39,6.13-7.31,9.7-16.48,14.63-24.6a61.54,61.54,0,0,1,18-19.23c1.77,2.21,3.66,1.16,5.51.17,7.26-3.87,14.65-7.52,21.72-11.73,6.18-3.69,12.16-7.86,13.77-15.85-2.94-1.18-5.79-1.41-7.66,1.34-2.18,3.21-2.66-.78-4-.69,3.48-3.36,8.21-3.72,12.27-3.24,5.23.62,5.76-1.18,5.2-5.42-2.56-19.26-2.41-38.6-1.27-57.95,2.74,1.53,4.51,1.13,4.11-2.4-.29-2.5-1-4.95-1.56-7.42,5.28-9.08,6.09-19.62,9.6-29.28.67,4.29,3.36,1.83,5.28,1.5,21.79-3.81,34.76,6.14,42,22.67a178.36,178.36,0,0,0,22.7,38.64c3,3.79,6.17,7.36,11.14,2.46,2.26,1.89,3.48.44,4.56-1.44,3-.81,6.28-1.19,7.66-4.67.74-1.75,3.41-2,3.37-4.36l7.13-.55c17.54-3.28,35.28-3.21,53-3,1.79,0,3.66.24,5-1.33,4.2-1.09,8.66,3.59,12.73-.57,9.07,3.41,16.82-1.32,24.9-4,12.91,3.45,23.35-3.8,21.55-15.58-2.93-19.26-4.37-38.52-3-58,6.56-14.31,9.65-29.72,14.16-44.67,2.34-7.76,5.76-8.66,12.67-4.43a25.39,25.39,0,0,1,6.59,6.32c1.78,2.23,2.75,6.34,7.15,5.26l2.86.26,1.58,3.06c.15,1.23.15,2.54,1.59,3.1.52,1.87,1.14,3.69,2.8,4.9,9.43,20.93,16.48,42.4,14.61,65.85,2.9.39,2.92-3.54,6-3.44,1.31,6.39,7.88,8.8,11.17,13.93.27.41.94,1.06,1,1,6.38-4.12,4.58,3.25,6.85,4.86.79,5.39,4.72,6.9,9.34,7.57,12.2,8.11,18.28,21.21,26.92,32.3,10.86,13.94,9.76,30.53,14.1,45.95,3.6,12.8-.7,24.87,1,37.16.58,4.33-1,6.11-5.37,6.12-8.69,0-17.25,3.29-26.14-.45-5.34-2.24-10.79,1.88-16.26,2.74-14,2.21-28.09,1.76-41.94,3.65-21,2.86-42.49,1.58-63.08,7.94-6.56,2-13.75,2-20.31,4.09-15,4.72-29.2,11.38-41,22.16a17.83,17.83,0,0,0-2.26,3.11c2.86,2.59,5.85,2.41,8.58.37,17.19-12.79,37.76-17.63,57.62-23.83,3.88-1.22,8.74-1.17,13.06-2.34C496.54,413,500.16,410.43,503.13,411.65Z"/><path class="cls-2" d="M306.6,606.24c2.92-19.92,7.21-39.4,15.68-57.9,4-8.68,5.86-18.3,9.41-27.2,5.34-13.4,11.32-26.61,21.12-37.46,8.24-9.11,16.27-18.54,26.6-25.49,2.28-1.53,4.72-2.57,6.8.32,1.43,2,1,4.41,1.14,6.68-6.15-1-5.1,5.19-7.36,7.85-21.58,25.43-38.82,53.48-49.86,85.13-5.06,14.52-9.47,29.49-10.66,44.59-.66,8.37-.78,17-1.57,25.57-.16,6.17-.68,12.35-.43,18.5.62,15.13,3.51,29.92,6.08,44.83a206,206,0,0,0,7.22,28.15c4.8,14.83,13.09,28.53,15.14,44.38.54,4.25,5.07,5.85,6.22,9.44,4.9,15.32,15,27.8,22.12,41.88,4.72,9.4,12.53,16.09,17.84,24.88,4.8,7.93,9.18,16.08,13.93,24,6.49,10.83,15.46,20.15,22.64,30.62,8.88,12.94,16.51,26.74,25.61,39.51,7.83,11,14,22.82,20,34.74C480,980.7,486.19,992.08,485,1006c-.56,6.46,1.57,14,7.6,17.67s13,2.85,18.19-3c2.52-2.85,4,.53,4.52,1.27,7.46,9.85,17.81,9.28,28.33,8.36l-1.53,4.61c-9.38,5.32-25.9,2-30.72-7.19-9.16,8.24-21.85,6.07-28.92-4.36-5-7.4-5.42-16.11-8.29-24.08-5.73-15.93-10.13-32.35-18.87-47.19-4.59-7.8-10.18-14.69-15.55-21.83-6.19-8.22-9.77-18.28-16.34-25.94-7.16-8.34-13.17-17.46-20.18-25.81-7.42-8.84-14.77-17.66-21.26-27.24-7.08-10.46-15.05-20.35-21.64-31.11-6.15-10-14.28-18.73-19.74-29-7-13.23-13.94-26.67-18.1-41.24-.63-2.21-1.66-4.3-2.51-6.44,1.63,0,2.3-.86,2-2.42-.46-2.46-2.46-2.15-4.21-2.26a494,494,0,0,1-12.32-99.07c1.86-9,.49-17.91-.77-26.82C307.58,611.29,306.66,608.64,306.6,606.24Zm61.62,210.6c-.6-1-.62-2.55-2.15-2.68s-1.43,1.13-1.37,2.07a2,2,0,0,0,2.46,2C367.85,818.18,368.63,817.89,368.22,816.84Z"/><path class="cls-2" d="M260.37,274.79c-1.14,19.35-1.29,38.69,1.27,57.95.56,4.24,0,6-5.2,5.42-4.06-.48-8.79-.12-12.27,3.24-8.36,10.46-17.63,19.92-29.31,26.76a61.54,61.54,0,0,0-18,19.23c-4.93,8.12-8.5,17.29-14.63,24.6-7.76,9.25-8.77,20.61-11.55,31.39-6.79,26.25-3,51.65,7.08,76.41,1.43,3.51,5.08,6,4.67,10.36-.33,7.56,5.44,13,6.8,20.17,3,15.9,12.7,28,24.62,38.48,5.75,5.05,12,9.62,17.14,15.22,3.15,3.44,4.93,8,10.47,8.14l1.3,3.51c.42,4.78,3.83,5.83,7.77,6.22,1.33.19,2.63.44,3.31,1.8-.5,2.58,1.85,3.5,3,5.14l-1.94,1.22c-16.58-3.31-29.2-13.14-40.93-24.59a188.65,188.65,0,0,1-23.16-27.38c-4.62,10.39-6.61,20.8-11.53,30.13-1.35,2.55-2.25,3.72-5,2.81-.11-2.55-.21-5.11-.31-7.66.44-12.24,5.49-23.29,9.15-34.68.62-1.92,1.06-3.42,0-4.89-6.85-9.14-10.41-19.85-14.51-30.3A205.19,205.19,0,0,0,129,555h-3c-3.27-8.21,4.49-11,8.38-14.47A52.48,52.48,0,0,1,156,529.35c8.13-2.15,10.3-5.27,7.92-13.46a187.19,187.19,0,0,1-6-73.3c3.91-34.19,16.46-66.3,45.14-89,4.83-3.82,9.61-7.84,15.93-9.11.5-.11,1.31.05,1.48-.22,6.38-10.28,16.67-12.94,27.65-14.5,4.09-.58,2.3-4,2.18-6.28-1.09-19.86-1.07-39.68,3.49-59.17,1.76-7.52,4.31-14.85,6.6-22.24,4.63-14.91,10.14-29.46,17.78-43.13.91-1.61,1.74-3.19,3.58-3.89,5.25,2.55,4.37-2.92,6.26-4.77,10.62,0,15,8.16,19.73,15.47,4.46,6.88,9.84,12.88,15.11,19.08a177.14,177.14,0,0,1,17.45,24.51c4.41,7.48,10.1,14.47,11.78,23.39l-.18,3.4-4.67,0c-5.48-11.51-11.29-23.16-18.5-33.33-9-12.74-20.74-23.74-32.59-34.25-3.09-2.75-5.21-2.78-8.1.41-7.13,7.86-11.39,17.27-15.58,26.78-3.51,9.66-4.32,20.2-9.6,29.28ZM181,397.44a12.7,12.7,0,0,0,2.43-1.8c.81-1.14,2.15-3-.36-3.14C181.57,392.42,181,394.83,181,397.44Z"/><path class="cls-2" d="M855.18,936.9c-.31-11.83,5.74-21.79,10.26-31.94,6.79-15.26,15.54-29.62,21.29-45.39,4.74-.78,6-4.65,7.94-8.28,4.3-8.08,5.82-17.34,10.92-25,2.63.55,1.36,3.39,2.76,4.66.18,11.3-7.05,20.21-9.89,30.55-2.18,7.92-8.9,13.58-11.69,21-5.11,13.6-13.66,25.56-17.58,39.79-1.9,6.88-5,13.59-5.47,20.72-.77,11.08.22,22.32-1,33.32-.91,8-.72,16-1.76,24.05-.8,6.18-1.57,12.43-2.34,18.68-2,16.06-10.16,27-24.76,33.42l-10,.1c-5.33-.69-8.85-4.2-11.73-8.19-3.7-5.16-2.2-9.1,4-11.63.39,6.12,3.07,11.41,9,12.81,6.62,1.56,12.4-2.3,15.93-7.52,10.73-15.86,15.35-33,13.45-52.71-1.38-14.24-2.9-29.25,2.54-43.35C858.11,939.15,855.28,938.73,855.18,936.9Z"/><path class="cls-6" d="M755.75,1034c-10.43,15.88-25.17,12.07-37.26-2.5-8.23-9.92-7.85-22.53-12-33.69-.49-1.3-.27-2.76,1.12-3.35,10.72-4.56,3.93-13.08,3.62-19.4-.33-6.74-1.66-14.42-11.74-15.62-4.81-.57-9.29-4.25-13.8-6.73-1.13-.62-5-.27-1.62-3.86,1.3-1.39-1.72-2.64-3.84-1.93a17.4,17.4,0,0,1-13.2-.53l-11.58-1.47c-16.78-2.58-31.2-10.85-45.76-18.84-4.49-2.47-3.91-5.75-2.11-9.45l7.91,4.7,1.43,1.17c5.77,3.63,16.55,5.34,21.84,3.47.7-1.3,2-1.43,3.25-1.64,17.39,9,36.42,14,54.16,22.13,11.51,5.28,19.92,13.69,21.46,26.46,1.16,9.66,2.62,19.34,2.54,29.23-.11,13.78,4,26.08,17.93,32.49,5,2.29,9.35,2.55,11-4.16,3.46.84,3.85-5.76,7.2-3.46C758.67,1028.67,756.18,1031.64,755.75,1034ZM643.4,933.78c1.23.75,1.29,3,3.29,2.68.23,0,.63-.77.53-.93-.89-1.44-1.4-3.41-3.74-3.15-1.78-.57-3.29-2.63-5.59-1C638.86,934.24,641.26,933.71,643.4,933.78Z"/><path class="cls-7" d="M576.7,940.1c-2.05,13.53-3.85,27.07-3.76,40.82,0,6.63-.78,13.27-1.21,19.91-8.1,0-4,5.7-4.32,9.31-3.3,5.43-3.54,12.36-8.34,17-3.88,3.78-8,7.17-13.64,8.09-2.32-2.72,2.72-4,1.25-6.6,1.29-2.48,2.05-5.53,4-7.36,11.77-11.2,14.74-25.6,15-40.83.29-17.63,4.17-34.75,6.46-52.1.23-1.7.33-3.71,2.57-4.33L576,926c.22,1,.45,2,.68,3C576.67,932.7,576.69,936.4,576.7,940.1Z"/><path class="cls-8" d="M358.23,299.52c-1.08,1.88-2.3,3.33-4.56,1.44l-5-20c.08-2.41,1.23-2.9,3.25-1.81l3,1.67c3.6,5,7.32,6.57,13.63,3.24,18.33-9.64,38.29-9.08,58.12-7,4.66.49,10.25-2.67,14.13,2.49a10.22,10.22,0,0,1,.1,1.1c-2,.49-5.84-1.77-4.67,3.24l-6.38.16c-11.93-2.83-24.06-2.1-35.91-.47-5.92.82-12.78,1.26-17.48,6.38l-7.13.55c-3.57-.68-4.89,2.13-6.63,4.28A8.93,8.93,0,0,0,358.23,299.52Z"/><path class="cls-9" d="M755.75,1034c.43-2.37,2.92-5.34.52-7-3.35-2.3-3.74,4.3-7.2,3.46a51.6,51.6,0,0,1,9.56-20.83c3.26-4.79,6.53-9.59,10.45-15.33,1.37,6.28-2.28,10.85-2.32,15.85-5.15,9.48-1.46,17.67,3.5,25.84,2.07,3.41,4.44,5.44,8.58,4.64.47,1.69.08,4.72,3.31,2.13,9.71,1.46,16.55-6.83,15.44-21.49,5.87-2.6,4.16,2.47,5,5,.22,9.09-1,17.58-10.22,22.28-7.09,3.61-16,1.6-23.46-5.79-2.42-2.39-6.69-3.11-6.75-8.33C762.15,1031.8,758.09,1032.84,755.75,1034Z"/><path class="cls-10" d="M576,926l-1.31-1.93c.8-6.48,3.12-12.43,6-18.27,3.24-6.61,8.6-8.42,14.87-6.12,6.56,2.42,12.49,6.58,18.5,10,6.64,3.8,13.12,8.14,20,11.73L630.79,923l-13.9-.45-1.43-1.17c.46-6.09-4.39-5.26-8-6.1-5.33-1.39-9.94-4.19-14.33-7.38-3.65-2.66-5.8-2.32-7.64,2.36-1.75,4.49-4.17,8.63-3.11,13.68C580.33,924.78,576.36,919.8,576,926Z"/><path class="cls-11" d="M172.92,558.33a24.47,24.47,0,0,1-9,14.2c-7.24,5.92-15,7-23.15,8.59-3.73.72-5.85-.37-6.93-4.13-1.21-4.19,2.05-4,4.21-4.36a59.54,59.54,0,0,0,31.18-16.31Z"/><path class="cls-11" d="M254.92,630.05l1.94-1.22c1.67-.19,2.65-2.31,4.63-1.64,1.34,1.72,3.08,1.3,4.82.9l4.7,3.43c2.33,1.57,4.39,3.8,7.64,3.07,4.81,2.86,10.49,2.44,15.62,4.1,1.05.33,2.69-.85,3.07,1.21.33,1.76-.87,2.1-2.15,2.56-9.89,3.51-31,4-37.29-10.19C257.47,631.28,255.94,630.78,254.92,630.05Z"/><path class="cls-12" d="M802.6,1026.26c-.85-2.49.86-7.56-5-5-3.34-1.71-1.05,8.84-6.33,2.91.72-2,2.6-3.52,2-5.91a7.06,7.06,0,0,1,1.26-.39c3,0,6.22.57,7.84-3,2.62,1.48,1.22,4.08,1.69,6.15C803.2,1022.69,804.49,1024.91,802.6,1026.26Z"/><path class="cls-13" d="M567.41,1010.14c.33-3.61-3.78-9.3,4.32-9.31C570.7,1004.13,570.78,1007.94,567.41,1010.14Z"/><path class="cls-14" d="M261.49,627.19c-2-.67-3,1.45-4.63,1.64-1.12-1.64-3.47-2.56-3-5.14l2.71-1.63,3.41,1.57Z"/><path class="cls-15" d="M288.07,190.26c-1.89,1.85-1,7.32-6.26,4.77C281.24,190,283.94,189.17,288.07,190.26Z"/><path class="cls-16" d="M576.7,940.1c0-3.7,0-7.4,0-11.1l3-.14C579.63,932.86,579.11,936.73,576.7,940.1Z"/><path class="cls-17" d="M607.5,915.24c3.57.84,8.42,0,8,6.1l-7.91-4.7C607.54,916.17,607.52,915.71,607.5,915.24Z"/><path class="cls-18" d="M579.68,928.86l-3,.14c-.23-1-.46-2-.68-3,.38-6.18,4.35-1.2,6.44-2.08Q581.06,926.39,579.68,928.86Z"/><path class="cls-12" d="M242.81,615.67l-1.3-3.51c2.63,2.15,7.51,1.8,7.6,6.79C246.27,619.28,245.24,616.12,242.81,615.67Z"/><path class="cls-19" d="M261.49,627.19,260,623.63c3.21-.09,6.67-.52,6.3,4.46C264.57,628.49,262.83,628.91,261.49,627.19Z"/><path class="cls-20" d="M174,603.36c.1,2.55.2,5.11.31,7.66-.39.7,0,3.44-1.65,1.2C170.42,609.19,172.14,606.11,174,603.36Z"/><path class="cls-21" d="M242.81,615.67c2.43.45,3.46,3.61,6.3,3.28l1.61.17c-.05.92-.09,1.84-.14,2.77C246.64,621.5,243.23,620.45,242.81,615.67Z"/><path class="cls-22" d="M546.68,1028.67c1.47,2.56-3.57,3.88-1.25,6.6-1.26,1.13-2.54,2.42-3.32-.41l1.53-4.61C544.1,1028.65,545.43,1028.73,546.68,1028.67Z"/><path class="cls-23" d="M278.65,634.59c-3.25.73-5.31-1.5-7.64-3.07C276.21,625.93,275.52,635,278.65,634.59Z"/><path class="cls-24" d="M655.42,944.93,667,946.4C662.64,949.92,659.07,947.07,655.42,944.93Z"/><path class="cls-23" d="M172.92,558.33l-3.68-2c-.46-4.69,1.91-2.64,4-1.76C177.26,556.25,174.43,557.2,172.92,558.33Z"/><path class="cls-25" d="M250.58,621.89c0-.93.09-1.85.14-2.77,2.56-.23,5.06-.32,5.88,2.94l-2.71,1.63C253.21,622.33,251.91,622.08,250.58,621.89Z"/><path class="cls-26" d="M317.79,738.73c1.75.11,3.75-.2,4.21,2.26.29,1.56-.38,2.4-2,2.42Z"/><path class="cls-27" d="M354.85,280.79l-3-1.67.06-3,.18-3.4A19.86,19.86,0,0,1,354.85,280.79Z"/><path class="cls-28" d="M126,555h3c.05,1,1.69,2.36-.16,2.9C126.57,558.53,126,556.87,126,555Z"/><path class="cls-6" d="M902,578.09c-12.1,6.4-23.94,13.44-36.16,19.4s-23.18,14.23-36.38,18c-1.86.53-3.55,2.23-5.83,1-1.44-.76-2.85-1.44-2.76-3.3.08-1.7,1.53-1.62,2.77-2,16.51-4.88,30.61-14.74,45.31-23.09,11.71-6.65,24.47-11.68,35-20.43a9.22,9.22,0,0,0,5-1.85c17.48-11.62,35.55-22.4,52.06-35.36,11.53-9.06,22.61-18.67,31.57-30.62,4-5.34,8.7-10.91,15.61-13.34l.39.06.39-.1c1.32,2.77-2.88,4.71-.95,8,3.93-1.49,3.15-5.22,4-8l.77-1.35,3.38-3.14c2.78-2.06,6.06-3.72,6.33-7.81,4.54-.84,2.32-6.55,5.84-8.12l1.71.83,1.71,4.58c-2.36,6.5-7,11.61-10.48,17.45-4.86,8.24-13.05,12.94-19.46,19.51-1.54-3.61,3.59-6.71,1-10.68-4.5,6.82-4.5,6.82-.87,10.6-14.49,10.05-25.4,24.36-41.12,33.14-13.84,7.73-26.64,17.34-39.9,26.12-2.29-.23-4.4-.1-5,2.74Z"/><path class="cls-2" d="M927,745.21c3.41-24.67,4.78-49.45,1.21-74.16-1.73-12-8.61-22.53-12.65-33.83-4.19-11.7-12.1-22.55-10.6-36.15.49-4.39-3.18-8-5.32-11.72-2.28-3.93-1.95-6.09,2.37-7.47,14.34,17.33,21.81,37.6,26.5,59.36,1.65,7.68,3.19,15.48,5.42,23,1.29,4.36-.09,8.47.19,12.62.46,6.78,5.65,11,6.13,17.88,1,13.64-.41,26.94-2.07,40.28-.62,5,1.21,10.26-1.64,15-3.3-.11-3.39,2.06-3.16,4.46-.56.56-1.11,1.14-1.67,1.7-.86-.15-2.3-1.37-2.46-.19a4.7,4.7,0,0,0,2.74,4.9c-1,4.78,1.17,10.13-1.38,14.4-2.34,3.93-.14,9.56-5,12.29-1.08-2.2-2.17-4.4-3.25-6.59.18-2.75.32-5.5.55-8.25C923.67,763.46,928.7,754.84,927,745.21Z"/><path class="cls-29" d="M652.74,392.66c-4.3-.58-9.07-.18-12.77-2-5.2-2.53.25-7-.28-10.84-1-7.1.31-14.5-1.36-22a32.88,32.88,0,0,1,16.11,5.42c-3-.06-5.29.85-4.76,4.36C650.94,376,650.19,384.51,652.74,392.66Z"/><path class="cls-11" d="M922.35,781c1.08,2.19,2.17,4.39,3.25,6.59-.3,10.28-6.93,18.75-8.2,28.75-1.1-.24-1.64-2.8-2.49-1.61s-3.12,3.89.52,5.25c-1.69,4.09-1.47,9.41-7.08,11-1.4-1.27-.13-4.11-2.76-4.66-.41-1.45-1.65-3.45-1.1-4.26C912.94,809.38,916.49,794.67,922.35,781Z"/><path class="cls-30" d="M644.9,349.47c-4.13-1.25-9.76-12.68-7.62-17.46,2.4-5.38,7.17-2.47,11.13-1.54a28.1,28.1,0,0,1-3.87.23c-4.51-.36-6.29.64-4,5.57C642.55,340.42,643.5,345.05,644.9,349.47Z"/><path class="cls-31" d="M654.47,288.76c.26-1.73.88-3.44,2.61-4,4.94-1.5,2-2.95.09-4.47,1.48-1.26,3-2.44,5.14-1.84.48,1.32,1,2.65,1.43,4C661.49,285.81,659,288.71,654.47,288.76Z"/><path class="cls-32" d="M769.63,411.72c-3.67,1.23-7.35,2.44-11-.13a3.52,3.52,0,0,1,0-1.41c2.21,0,4.65.4,4.69-3,3.32-1.72,3.39,3.71,6.31,2.86Z"/><path class="cls-33" d="M769.63,411.72v-1.66c4.14-2.77,6.1-.17,7.77,3.16h-1.91C772.82,415.55,771,414.47,769.63,411.72Z"/><path class="cls-4" d="M775.49,413.21h1.91l1.5,0c2.1.86,4.21,3.05,6.3,0l1.92.2c.44,1.61.87,3.23,1.3,4.84l-4.57-.41C782.35,414,776,418.88,775.49,413.21Z"/><path class="cls-34" d="M763.32,407.2c0,3.38-2.48,3-4.69,3-1-.63-2-1.26-3.07-1.88,0-.61,0-1.21,0-1.82C758.39,403.89,760.75,406.66,763.32,407.2Z"/><path class="cls-35" d="M788.42,418.28c-.43-1.61-.86-3.23-1.3-4.84,2.88,2.11,6.38,3.58,7.58,7.4l-4.63-.1Z"/><path class="cls-36" d="M931.71,756.16c.56-.56,1.11-1.14,1.67-1.7,1,.07,2,2.32,3,0,2.51,3.9,1.42,6-3.17,6.48C932.74,759.34,932.23,757.75,931.71,756.16Z"/><path class="cls-37" d="M677.92,358.92c-.4-4.55,3.2-5.14,6.23-6.29A8.47,8.47,0,0,1,677.92,358.92Z"/><path class="cls-20" d="M915.43,820c-3.64-1.36-1.44-4-.52-5.25s1.39,1.37,2.49,1.61C917.68,818,917.73,819.63,915.43,820Z"/><path class="cls-38" d="M785.2,413.24c-2.09,3.06-4.2.87-6.3,0C781,409.15,783.1,410.37,785.2,413.24Z"/><path class="cls-39" d="M936.43,754.44c-1,2.34-2,.09-3,0-.23-2.4-.14-4.57,3.16-4.46C936.5,751.48,936.47,753,936.43,754.44Z"/><path class="cls-40" d="M931.71,756.16c.52,1.59,1,3.18,1.55,4.76l-.64.1-.63-.15a4.7,4.7,0,0,1-2.74-4.9C929.41,754.79,930.85,756,931.71,756.16Z"/><path class="cls-41" d="M685.56,350.9c-1.53-.68-1.79-2-1.64-3.45.88-1.47,2-1.4,2.76-.08S687.35,350.17,685.56,350.9Z"/><path class="cls-42" d="M619.92,291.78c-3.59,1.87-4.38-.25-4.59-3.22A4.06,4.06,0,0,1,619.92,291.78Z"/><path class="cls-43" d="M663.74,282.46c-.48-1.32-1-2.65-1.43-4,3.09-.76,4.06,1.81,4.13,3.63C666.53,284.14,664.68,282.13,663.74,282.46Z"/><path class="cls-44" d="M599.65,271.52c-2.83-.22-3.45-2.74-4.73-4.57C598.39,266.52,599.46,268.56,599.65,271.52Z"/><path class="cls-45" d="M915.81,570.32c.63-2.84,2.74-3,5-2.74A4.27,4.27,0,0,1,915.81,570.32Z"/><path class="cls-46" d="M459.48,636.1c-1.38,10.07-9.08,16.23-14.68,25.78.32-15.91,2.47-29.64,2.42-43.55,0-7.79-3.73-14.55-3.61-22.61.35-23.55,9.07-43.63,21.44-62.88,5.83-9.09,13.34-16.48,21-23.83,4.19-4,6.92-8.41,6.08-14.37-2.93-20.61,6.17-37.25,17.61-53,6.5-9,12.72-18.28,22.44-24.3,2.17-1.34,2-3.41,2-5.5l4.8-.12c1.6,5.16,6.4,3.16,9.68,3.76,1.62.3.12-2.38-.25-3.7L565.39,410c-.95,4.46,2.77,7.46,3.65,11.5,1.73,7.84-4.47,13.4-4.27,20.73.26,9.19-5.12,17-7.54,25.56-3.06,10.79-8.94,19.85-13.81,29.57h-1.57c-.7-2.81-2.23-3.15-4.42-1.5l-4.11,7.78c-1.48,2-3.74,3.48-4,6.27a24.31,24.31,0,0,0-6,14c-3.46,8-7.42,15.4-13.66,22-5.39,5.73-5.91,14.55-6.69,22.53-1.61,16.64-6.84,32.14-14.12,47.15-5.78,11.92-14.15,18.71-27.88,17.42-.18-.92-.28-2.6-1.49-1.85C457.41,632.47,457.21,634.42,459.48,636.1ZM475,572c-1,1.12-2.52,3.08-.84,3.67,2.39.85,2.1-1.94,2.5-3.49,1.91-1.81,2.1-3.64.17-5.79Zm-11,.17c2.23-1.47,2.89-3.76,3.26-6.21a66.61,66.61,0,0,0,12.63-30.89c3.4,2.77-.87,7.82,3.11,10.42,4.58-.11,2.35-3.8,3.11-5.92l4.32-5.08c2.86-6-1.71-11.48,0-18.33-8.59,8-13.12,17.1-17.18,26.13-3.44,7.64-9,14.6-9.34,23.52-2,1.84-1.35,4.15-1.16,6.39,0,2.85-4.82,7.85,3.42,7.48C465.6,576.9,463.68,574.86,464.05,572.18Zm1.83-26.33c1.77-2.85,4.77-5.11,5.05-9.82-3.77,2.33-4.93,5.48-6.6,8.23-6.27,11.24-11.87,22.71-11.79,36.09C456,568.46,462.07,557.59,465.88,545.85ZM553,446c-1.75-.42-4.46-2.48-4.55,1.15-.23,9.76-5.33,17.92-8.12,26.83-1.86,1.91-3.61,3.85-2.17,7.1,2.88-1.92,5.3-3.62,5.45-7.07,2.32-3,4.37-6.28,7-8.92,6-5.9,1.77-12.76,2.28-19.16,4.36.45,5.26-1.91,4.46-5.57-.33-1.51-1-3.6-2.66-3-2.87,1.07-2.56,3.83-2,6.37A21.11,21.11,0,0,1,553,446ZM487.41,578.25c-3.2.5-3.94,2.84-2.41,5,1.92,2.65,2.49-1.41,4.05-1.47.55,3.4,2.09,5.93,5.83,7.17,1.79-10.18,3.48-19.84,5.45-31C492.24,563.73,490.21,571.23,487.41,578.25Zm10.44-30.63C504,538,509.67,528.15,509.09,514,504.43,526.35,496.75,535.4,497.85,547.62ZM529.68,490c-11.6,6.15-18,17-13.73,22.52C520,505.11,525.93,499,529.68,490Zm-32.89,10.36c3.3-3.52,6.06-6.61,7.22-10.68,1.24-4.34-2.2-4.94-4.62-5.51-3.49-.82-2.45,2.43-2.53,4.1C496.66,492.32,496.79,496.36,496.79,500.39Zm47-78.83c-3.61,14.17-3.61,14.17-.7,18C543.32,433.69,546.91,428.81,543.81,421.56Zm-90,203.22c-.39,3.15-3.35,4.4-.58,7.44C454.66,630.2,456.54,628.68,453.83,624.78Zm110.81-199c.56-1.71,2.62-3.18,1.51-5.27-.17-.32-1.48-.43-1.89-.14C561.91,422,564,423.81,564.64,425.74ZM492.6,590c-3.29,3-2.8,5.33-3.09,8.48C492.46,596,492.77,593.8,492.6,590Zm1.45-77.23c2-2.7,3.4-4.43,3.28-7.24C493.89,506.46,493.67,508.59,494.05,512.76Zm.56,34.8c-1.28,2.63-3.1,4.13-1.47,6.89C495.46,552.67,495.63,550.76,494.61,547.56Zm13.86-66.72c1.62-1.83,2.61-3.31,2.16-5.16-.22-.93-1.17-.7-1.69-.13C507.63,477,507.45,478.62,508.47,480.84Zm-9.25-4.4a23.58,23.58,0,0,0,1.53-2.37c.36-.79.95-2.25-.55-1.93S498.14,474.1,499.22,476.44ZM460.09,589.82c.42-.73,1-1.3,1-1.8-.09-.84,2-2.79-.59-2.37C459.1,585.88,459.24,588.05,460.09,589.82Z"/><path class="cls-46" d="M665.25,505.18c1-3.95,3-8,2.64-11.83-1.09-11.83,6.13-19.28,12.88-27.14,1.07.69,2.34-4.93,3.28.1.31,1.82-2.29,3.51,0,5.76,3.24-2.93,3.67-6.95,4.65-10.71a2.91,2.91,0,0,1,1.4-2.86,4.79,4.79,0,0,0,3.23-4.85,66.41,66.41,0,0,0,9.32-15.48c6.39-9,14.79-16,23.22-23,5.94-.25,11.56,1.45,17.23,2.86A2.85,2.85,0,0,0,746,421.1c1.6,6.12-1.7,11.41-2.91,17.06-1,2.94,1,2.94,2.66,2.32,1.87-.72,2.87-2.21.79-4,3.92-1.38,4.78-4.89,5.44-8.3s2.17-4.36,5.19-2.48c3.59,12-7.29,24.46-19.28,21.57-3.88-.93-5.46-.19-7.12,3.15-4.19,8.41-10.11,15.64-16.76,22.17-7.41,7.29-12.67,16.4-18.27,24.73s-6.12,19.76-8.5,29.93c-1,4.46-1.14,9.14-1.66,13.72q-.84,2.37-1.67,4.72l-4.72.09c-.08-1.45.63-4-1.22-3.83-2.61.2-3.07,2.95-3.23,5.33-2.55,2.5-5.48,4.22-9,2.42s-4.14-5.28-3.56-8.72c.77-4.6-1.66-8.46-2.31-12.71-1.06-7,1.52-12.87,5.32-18.43C667.23,508.31,667.29,506.76,665.25,505.18Zm4.51,25.48c-1.7,3.94-2.28,7.63-.36,11.19.59,1.09,2.34.63,3.16-.7C675.17,536.94,674.05,533.66,669.76,530.66ZM673,516.41c.75,4.05.53,7.23,3.78,8.76.83.39,2-.47,2.11-1.67C679.13,520.12,676.75,518.63,673,516.41Zm12.39-30.71c-.07-.72-.23-1.57-1.15-1.27a2.85,2.85,0,0,0-1.76,2.91c0,.77.3,1.51,1.19,1.25C685,488.19,685.35,487,685.38,485.7Zm-5.06,24.75c0-1.18-.51-1.76-1.29-1.48a2.44,2.44,0,0,0-1.13,1.58c-.17.72.17,1.59,1.13,1.23C679.61,511.57,680,510.82,680.32,510.45Zm6.7-7.94c1.79-2.79,2.82-3.75,2-5.09-.37-.63-1.34-1.1-1.66-.21C687,498.3,687.18,499.59,687,502.51ZM675.62,485c-.7,1.82-1.68,3.14.11,4.93C675.09,488.34,677.8,487.31,675.62,485Z"/><path class="cls-47" d="M757.17,425.69c-3-1.88-4.52-1-5.19,2.48s-1.52,6.92-5.44,8.3l-3.45,1.69c1.21-5.65,4.51-10.94,2.91-17.06l1.77-1.61c5.2.08,10.1,1.09,14.18,4.6C760.25,424.32,758.34,423.88,757.17,425.69Z"/><path class="cls-48" d="M1037.65,427.29c-1.12-4.51,3.45-7.06,3.8-11.06,4.83.13,3.71,3.85,4,6.68.33,3.3-1.46,4.5-4.51,4.35l-3-.16Z"/><path class="cls-49" d="M589,271.09c-4.62-.67-8.55-2.18-9.34-7.57C584.73,263.66,587.61,266.47,589,271.09Z"/><path class="cls-50" d="M1022.36,458.53c1.47-2.3,3.19-3.47,5.93-1.75,1.93,1.22,4,2,6,0,.62,2.5-1.68,3.31-2.8,4.8-1.07,0-2-1.67-3.19-.29Z"/><path class="cls-51" d="M1033,444.32c.57-1.53,1.15-3.07,1.72-4.61,2.08,1.82,4.18-.44,6.26,0a9,9,0,0,1-3.06,6.27l-2.93,0Z"/><path class="cls-52" d="M548.33,411.74c.37,1.32,1.87,4,.25,3.7-3.28-.6-8.08,1.4-9.68-3.76Z"/><path class="cls-53" d="M1041,439.73c-2.08-.46-4.18,1.8-6.26,0-.36-2.72,3.57-3.4,3-6.23l3.16,1.58C1040.46,436.63,1042.9,438.11,1041,439.73Z"/><path class="cls-54" d="M429.78,284l6.38-.16,4.52-.1c1.5,3.73,4.89-1.84,6.5,1.31-4.07,4.16-8.53-.52-12.73.57C432.86,285.2,430.91,285.8,429.78,284Z"/><path class="cls-55" d="M503.13,411.65c-3-1.22-6.59,1.35-9.27-1.59,2.87-.36,5.86.66,8.44-2.08,1.64-1.75,3,.48,4,1.94Z"/><path class="cls-56" d="M1040.84,435.06l-3.16-1.58c.09-2.13.17-4.25.25-6.38l3,.16C1040.47,429.85,1044.54,432.5,1040.84,435.06Z"/><path class="cls-57" d="M680.74,410.5c-3.69,2.72-8.35.16-12.27,2.21-.71.37-.43-1.48-.25-2.35Z"/><path class="cls-58" d="M975.47,363.13a12,12,0,0,1-7.93,1.69C973.49,360.54,973.49,360.54,975.47,363.13Z"/><path class="cls-59" d="M741.74,407c.93,2.63-.6,3.23-2.65,2.84-1.33-.25-3.33-.4-3.34-2.26a2.23,2.23,0,0,1,2.7-1.94A3.14,3.14,0,0,0,741.74,407Z"/><path class="cls-60" d="M849,435.14c.85-2.1,2.39-3,5-2.63C853.24,435.15,850.91,434.88,849,435.14Z"/><path class="cls-61" d="M788.42,418.28l1.65,2.46a8.84,8.84,0,0,1-7.14-1.36c-2.44-1.51.4-1.08.92-1.51Z"/><path class="cls-62" d="M829.4,449.14c.91-3.2,2.09-4.83,5.41-4.22C834.44,448.28,832.07,448.29,829.4,449.14Z"/><path class="cls-63" d="M531.24,170q-.78-3.21-1.58-6.41a8.19,8.19,0,0,1,0-1.4c2.61,2.07,3.47,5.11,4.47,8.07Z"/><path class="cls-64" d="M1028.3,461.25c1.2-1.38,2.12.29,3.19.29q-.75,2.65-1.49,5.31l-1.71-.82C1027.11,464.43,1027.76,462.84,1028.3,461.25Z"/><path class="cls-65" d="M440.68,283.77l-4.52.1c-1.17-5,2.71-2.75,4.67-3.24Z"/><path class="cls-66" d="M479.39,250.28c-1.37-2.33-2.38-4.7-.92-7.79,1.84,1.48,3.42,2.56,1.52,4.76Z"/><path class="cls-67" d="M806.93,465l4.41-6.56C811.92,462.05,811,463.45,806.93,465Z"/><path class="cls-68" d="M1040.74,400.75c-1.91-1.73-1.51-4-1.5-6.2C1040.36,396.47,1043.39,397.93,1040.74,400.75Z"/><path class="cls-69" d="M709.28,400.87c.82.52,1.81.8,2,1.32.47,1.59-.93,1.58-1.84,1.47-.57-.07-1-.83-1.56-1.28Z"/><path class="cls-23" d="M540.07,181.32c-1.66-1.21-2.28-3-2.8-4.9l3.12,0C541.61,178.17,541.07,179.76,540.07,181.32Z"/><path class="cls-70" d="M741.74,407a3.14,3.14,0,0,1-3.29-1.36h8.17C744.79,408.4,743.11,407,741.74,407Z"/><path class="cls-71" d="M755.56,408.3c1,.62,2.05,1.25,3.07,1.88a3.52,3.52,0,0,0,0,1.41c-1.57-.19-3.59,1.17-4.56-1C753.62,409.49,754.68,408.81,755.56,408.3Z"/><path class="cls-72" d="M479.39,250.28l.6-3,2.73,3.51c-.51,1.22-1,2.45-1.52,3.67C479.65,253.46,479.65,251.82,479.39,250.28Z"/><path class="cls-73" d="M747.77,419.49,746,421.1a2.85,2.85,0,0,1-2.92-3.06C744.87,417.78,746.59,417.74,747.77,419.49Z"/><path class="cls-74" d="M540.39,176.46l-3.12,0c-1.44-.56-1.44-1.87-1.59-3.1A4.11,4.11,0,0,1,540.39,176.46Z"/><path class="cls-75" d="M529.63,162.19a8.19,8.19,0,0,0,0,1.4c-3.54.5-3.09-2.16-3.37-4.24A5.37,5.37,0,0,1,529.63,162.19Z"/><path class="cls-76" d="M517.82,139.67c-2.18,1.47-3.78.93-5.47.28C513.77,137.81,515.44,138.73,517.82,139.67Z"/><path class="cls-53" d="M950.59,373.17l-5,2.53C946.2,372.75,947.13,370.45,950.59,373.17Z"/><path class="cls-46" d="M569.92,525.44l.36-4.55a2.89,2.89,0,0,0,3-3.22,21.73,21.73,0,0,0,4.44-14l4.85-3.27c1.34.71,1.56,2,1.76,3.32q-.17,3.09-.31,6.16c-1.52,1.46-2.15,3-.36,4.87l2.11-4.85c6.75-5.33,9.76-12.8,12.91-21.31-4.88.17-7,3.84-10.37,4.61-.08-15.57,25.72-52.64,50.31-72.26a3.17,3.17,0,0,1,3.32,3.32c-.21,1-.87,2.66-.56,2.87,6.43,4.22,4.33,11.64,6.66,17.36l3.27,3a4.75,4.75,0,0,0-3.19,3.25,61.69,61.69,0,0,0-8,15c-7.74,21.33-17.42,41.76-27.41,62.12a244.3,244.3,0,0,0-21.47,65.3,93.3,93.3,0,0,0-1.29,14.39c-.13,7-6.55,9.82-8.53,15.37-.53,1.45-2,3.35-1.54,4.25,5.24,10.14-3.48,18.37-3.55,27.71,0,1-.2,2.17-1.49,2.38a2.22,2.22,0,0,1-2.61-2.21c-.43-4.09-1.22-8.3-.61-12.26.33-2.13-.55-4.08.06-6,1-3.08-2.24-2.12-3.25-3.18-2.24-2.36-1.58,1.25-2.15,1.94-3.4,4.13-5.94,9.37-11.49,10.87s-11.49,1-14.66-4.24c-3.43-5.72-.87-12.13,2.75-16.57,9.66-11.84,14.28-26.11,20.62-39.54,2.07-4.4-.64-10.85-2.1-13.26-4.34-7.16-.67-13.13-.13-19.42.31-3.55.86-7.16,1.19-10.75l1.48,1.49c.64,2.34-1.68,5.76,1.88,6.83,1.15.35,1.12-2.31,1.22-3.73l3.09-11Q570,530.87,569.92,525.44Zm33-54.51-4,7.43c3.93-.88,5.22-3,5.73-5.86,1.44-1.49,2.1-3.09.69-5ZM570.27,578.44l-1.83,7.76a44.83,44.83,0,0,0-3.91,14.59c6.11-4.28,4.48-9.92,5.6-14.57,1.56-2.39,1.67-5.06,1.54-7.78.18-3.47,2.94-6.43,2.22-11.36A19.08,19.08,0,0,0,570.27,578.44Zm49.56-123.15c2.52-5.07,8-8.33,8.84-14.45-4,4.42-11.81,6.11-10.5,14.39-2.32,1.24-3.24,3.14-3.33,7.63Zm-45,171.41c6.13-5.1,7.09-14.13,2.2-18.86-2.75,6-2,12.54-2.15,19-2.9-2-.28-5.9-3-8.54-2.55,3.67,0,7,.43,10.09C572.44,629.27,574.26,627.83,574.82,626.7Zm53.23-147.92c2.41-2.95,3.79-6.14,2.71-10.88-3.5,2.78-3.58,6.2-4.54,9.18-5.67,4.61-11.21,9.28-6.54,18.17C624.91,490.64,625.45,484.18,628.05,478.78Zm-15.79,21.77c-3.19-.15-3.62,2.58-4.79,4.55-3.46,1-6.56,2.09-2.89,6.32-.19,2.94-2.92,3.36-4.69,4.73-5.48,2-3.3,4.08,0,6.14,1.94,1,3.24,2.31,2.7,4.7-1.42,1.12-2,2.43-.86,5.12,1.12-2.22,1.86-3.7,2.6-5.18,3.32-8.62,8.89-16.57,7.89-26.47,5.91.69,2.13-2.77,2.57-4.42A4.65,4.65,0,0,0,612.26,500.55Zm-23.5,74.65c3.4-.38,4.15-1.85,1.87-4.56,1.1-3.07,2.12-6.14.9-9.29-2.84.11-1.8,5.89-5.68,3.53-2-1.22.25-5.36-3.46-6.07-.69,4.38-2.32,8.34-3.82,12.41-2.33,6.28-5,13-.6,19.73.68,1,1.12,2.6,2.74,2.17,1.45-.39,2.87-1,3-3C584.09,584.73,587.59,580.35,588.76,575.2ZM563.15,605c-4.24,9.79-12.18,17.19-15.62,27.26-.91,2.69-2.06,4.63.45,6.69s5.2,1,7.1-.51a15,15,0,0,0,5.37-8.31C562.22,621.92,563.78,613.62,563.15,605Zm26-86.55c-7,10.87-10.1,23-11.48,35.61C582.66,542.58,589.71,531.78,589.16,518.47Zm49.8-74.8a41.68,41.68,0,0,0-7.93,18.9C638.41,456.91,638.15,450.07,639,443.67Z"/><path class="cls-77" d="M824.49,693.76c3.17,5.77,8.44,7.66,14.61,8.33a41.89,41.89,0,0,1,17.52,5.64c5.44,3.32,8.36,7.72,4.93,14.22-5.14-1.35-7.7-6.94-12.94-8-3.83,7.13-1,12.81,4.18,17.48,3.83,3.45,4.63,6.81,2.85,11.64-2.37,6.43-7.29,11.43-10,17.14-3.45,7.33-8.09,6.68-13.69,6.69-2.3-4.53-8.59-1.66-11-5.95l-4.83-.08c1.5-1.93,1.39-3.59-.81-4.92,0-.94-.11-1.88-.17-2.83,3.35.9,3.2-.64,1.38-2.35-1.62-1.51-4.56-.61-6.12-2.67-1.4-2.52,7.65-5.39-.25-7.7-.14-.93-.28-2.51-1.52-1.71-2.1,1.36-2.1,3.28,0,4.95-.21,1.55-2.51,3.07-.07,4.67l.12,1.58c.5,3.68-1.38,7.66,1.37,11.06,1.54,6,5.07,12.25-4.34,15.78-6,2.26-23.09.18-27.07-4.47a2.82,2.82,0,0,1-.37-3.51c.74-1.49-.12-2.09-1.33-3-14.44-10.35-10.38-31.88,4.1-39.36,3.19-1.65,4.9-2.45,3.17-6-1.41-2.85-2.42-5.33-6.92-4-3.69,1.06-6.38,4.6-10.6,4,10.29-14.36,25.89-18.59,41.93-21.88,3.74-.76,7.57-1.06,10.95-3.06C821.77,696.59,823.85,697.26,824.49,693.76Z"/><path class="cls-2" d="M816.12,760.87,821,761c-3.62,5.86,7,5.86,3.06,12.71l8-6.76c5.6,0,10.24.64,13.69-6.69,2.69-5.71,7.61-10.71,10-17.14,1.78-4.83,1-8.19-2.85-11.64-5.21-4.67-8-10.35-4.18-17.48,5.24,1.06,7.8,6.65,12.94,8,2.38,5.28,5.33,10.38,7,15.88,1.73,5.84-.68,11.76-2.25,17.36-1.51,5.37-7.18,8.68-8.43,14.47-.29,1.35-1.19,2.67-2.68,1.73-4.75-3-6.13,2.14-9,3.54-2,.34-2.23,3.57-4.81,3l-7.82-.1c-5.15.34-10.47-1-15.41,1.51-.4-1.2-.57-4.09-2.26-1.22-1.22,2.07-2.13,4.34-3.83,6.13l-.48,2.73c-1.78-.48-1.5-3.34-4.22-3.3-.11,1.65-.22,3.33-.33,5l-4.44,1.46v-6.84l-3.41,5.48c-2.53,2.33-4.89-6-7.47-.12a5.73,5.73,0,0,0-4.86-1.42c-6.95-1.86-14.6-4.95-19.24-8.78a35.5,35.5,0,0,1-12.12-20.56c-2.66-14.83,6-25.5,11.24-37.53,4.22.61,6.91-2.93,10.6-4,4.5-1.29,5.51,1.19,6.92,4,1.73,3.52,0,4.32-3.17,6-14.48,7.48-18.54,29-4.1,39.36,1.21.87,2.07,1.47,1.33,3a2.82,2.82,0,0,0,.37,3.51c4,4.65,21,6.73,27.07,4.47,9.41-3.53,5.88-9.73,4.34-15.78l1.71-1.69C812.74,761,814.5,760.77,816.12,760.87Z"/><path class="cls-9" d="M802.33,1014.9c-1.62,3.58-4.85,3-7.84,3-5.19-10.35-4.08-22.24-8.18-32.94-4.32-11.29-2.87-24-6.53-35.1-1.74-5.29,1.45-12.93-5.61-16.39,5.06-4.39,1.85-10.22,2.52-15.34s.39-10.29.66-15.44c.1-1.82-1.13-4.4,2.25-4.78,3.06-.35,3,2.07,3.71,3.94,4.67,11.91,2.69,24.46,3.11,36.68.55,16.13,3.5,31.62,7.62,47.13C796.63,995.46,798.08,1005.57,802.33,1014.9Z"/><path class="cls-8" d="M682.66,901c-2.34-5.61-3.37-11.74-6.78-16.92-.62-1.79-1.08-3.68-2.77-4.86-5-15.29-4.59-31.35-6.57-47.06-.51-4.06,1.33-6.79,5.41-6.65,4.56.17,1.72,3.87,2.09,6,2.66,15.13,4.78,30.23,9.16,45.16,2.77,9.43,5.69,18.6,10.37,27A59.81,59.81,0,0,1,698.69,915l-4.12.24c-3.71-1.15-6.51-3.6-9.06-6.39C687.91,905,685.79,902.81,682.66,901Z"/><path class="cls-8" d="M824.49,693.76c-.64,3.5-2.72,2.83-5,1.71-6.18-9.65-6.23-9.69-13.63-1.12-1.51,1.74-3.18,3-5.24,2.12-3.37-1.48.21-3.33.14-5.07-.08-2,1.57-3.09,2.86-4.34,2.91-2.8,4.51-5.47-.16-8.3-4.29-2.6-3.77-7.29-4.34-11.45,1-1.88,2.17,2.42,3.2,0,1.28,1.85,2.29,4,3.88,5.5,8.1,7.79,8.14,7.5,11.91-3,1.85-5.18,4.37-10.45,8.66-14.29,1.32-1.18,3.12-2.84,5.36-.59,2.56,2.56-.41,3.17-1.1,4.76-1,2.29-6.84,4.22-1.08,7.51l4.86-1.42c-.43,1.57-.87,3.13-1.31,4.7l-4.18,7.24c3.61,1.72,7.38,3.47,11.1,5.32,2.45,1.21,3.45,3.12,2.17,5.74s-3,.71-4.53.23c-2.7-.86-5.29-2.13-8-2.75-2.16-.5-5.11-1.69-6.51.46A5.43,5.43,0,0,0,824.49,693.76Z"/><path class="cls-78" d="M818.08,779.37c4.94-2.53,10.26-1.17,15.41-1.51-6.78,5.88-13.78,11.38-22.06,15.1-9.53,4.29-17.56,2.54-24.65-5.68a5.73,5.73,0,0,1,4.86,1.42c2.63,2.81,6,1.41,9.1,1.6l1.78-.12,4.44-1.46c1.74,0,3.73.72,4.55-1.71l.48-2.73C815.93,785,817.9,783.3,818.08,779.37Z"/><path class="cls-79" d="M523.4,523.9a24.31,24.31,0,0,1,6-14c2.76-1.21,4.71-3,4.7-6.31h4.8l1.58,0c-4,6.26-7.9,12.54-11.91,18.78C527.32,524.28,525.71,525.41,523.4,523.9Z"/><path class="cls-80" d="M1028.3,461.25c-.54,1.59-1.19,3.18,0,4.78-3.52,1.57-1.3,7.28-5.84,8.12l-2-.17.24-3c1.57-1.34-.3-2.63-.06-3.95-3.26-3.64-.91-6.11,1.76-8.51Z"/><path class="cls-81" d="M563.93,544.16l-1.48-1.49c1.68-4.68.26-10.36,4.63-14.16.69,2.72.86,5.65,3,7.79l-3.09,11Z"/><path class="cls-82" d="M702.63,438.17a66.41,66.41,0,0,1-9.32,15.48,5.25,5.25,0,0,0-4.78,3.21c-1,.14-2.06,1.78-3.08,0C690.79,450.26,695.48,443.09,702.63,438.17Z"/><path class="cls-83" d="M651.3,447.49l-3.27-3c2.58-2.65,4.25-6.2,7.82-7.86h3c2.05,5.88-5.89,6.17-6,10.81C652.33,447.45,651.82,447.47,651.3,447.49Z"/><path class="cls-84" d="M664.15,427.08c-1.73-3.42-2.82-7.61-.36-8.58,2.68-1.07,6.25-.49,9-2.48a2.69,2.69,0,0,1,1,1,1.64,1.64,0,0,1-1.07,2.42C669,420.65,667.08,424.1,664.15,427.08Z"/><path class="cls-85" d="M577.71,503.65a21.73,21.73,0,0,1-4.44,14,5.53,5.53,0,0,0-3.15-3.19C571.35,510,574.36,506.68,577.71,503.65Z"/><path class="cls-86" d="M700.89,926.11l-4.49-1.69c.8-1.65-2.12-3-.37-4.75,1.87.15,4.63,3.32,5-1.48,1.57,2.92,5.19,4.88,4.22,9Z"/><path class="cls-81" d="M685.45,456.84c1,1.8,2,.16,3.08,0l1.55,1.64a2.91,2.91,0,0,0-1.4,2.86c-2.48.78-2.83,3.55-4.63,4.95-.94-5-2.21.59-3.28-.1C680.56,462.2,683.08,459.56,685.45,456.84Z"/><path class="cls-87" d="M701.07,918.19c-.41,4.8-3.17,1.63-5,1.48-1-1.33-3.19-2.26-1.46-4.48l4.12-.24Z"/><path class="cls-36" d="M833.55,670.42l1.32-4.7c.84-.89,3.78,1.85,3.07-1.76.74-1.45,2.12-1.25,3.39-1.33.09,1.14.17,2.28.25,3.43C839.12,667.9,837.05,670.47,833.55,670.42Z"/><path class="cls-88" d="M1033,444.32l2,1.71c-1.4,1.12,1.71,4.74-2.44,4.38-.81-.07-2.29.56-2.39.36C1028.67,447.62,1031.7,446.34,1033,444.32Z"/><path class="cls-89" d="M658.89,436.6h-3c.19-3.52,2.75-5.22,5.5-7.26C663.25,432.91,659.55,434.26,658.89,436.6Z"/><path class="cls-90" d="M802.37,667.26c-1,2.47-2.16-1.83-3.2,0a2.82,2.82,0,0,1,1.13-5C802.85,662.42,803.76,664.7,802.37,667.26Z"/><path class="cls-61" d="M682.66,901c3.13,1.81,5.25,4,2.85,7.8C681.71,907.24,682.72,903.93,682.66,901Z"/><path class="cls-91" d="M570.12,514.48a5.53,5.53,0,0,1,3.15,3.19,2.89,2.89,0,0,1-3,3.22C570.71,518.74,567.24,516.69,570.12,514.48Z"/><path class="cls-32" d="M841.58,666.06c-.08-1.15-.16-2.29-.25-3.43,2.14-2.26,4.69-.52,4.84.9C846.45,666.31,843.42,665.63,841.58,666.06Z"/><path class="cls-92" d="M570.12,536.3c-2.18-2.14-2.35-5.07-3-7.79l2.84-3.07Q570,530.87,570.12,536.3Z"/><path class="cls-93" d="M674.74,547.27c.16-2.38.62-5.13,3.23-5.33,1.85-.14,1.14,2.38,1.22,3.83l.08-.08c-1.31,0-2.48.23-3.1,1.57Z"/><path class="cls-81" d="M641.93,424.24a3.17,3.17,0,0,0-3.32-3.32c1.21-1.43,2.4-4.39,4.29-2.85C644.37,419.26,643.87,422.38,641.93,424.24Z"/><path class="cls-94" d="M700.89,926.11l4.4,1.08c.67,3.69-2,3.24-4.18,3.37C701,929.07,701,927.59,700.89,926.11Z"/><path class="cls-95" d="M584.32,503.7c-.2-1.31-.42-2.61-1.76-3.32,1.42-2.47,3.39-3.58,7.38-2.23C586,498.77,586,501.91,584.32,503.7Z"/><path class="cls-79" d="M651.3,447.49c.52,0,1,0,1.55-.08-.13,3.63-1.06,4.29-4.74,3.33A4.75,4.75,0,0,1,651.3,447.49Z"/><path class="cls-96" d="M649.23,412.33c.48,3.46-1.05,4.32-3.65,4.57C645.39,414.39,646.88,413.34,649.23,412.33Z"/><path class="cls-97" d="M540.45,503.61h-1.58c0-1.55.09-3.09.13-4.64l2.84-1.61h1.58Z"/><path class="cls-52" d="M459.48,636.1c-2.27-1.68-2.07-3.63.08-4.93,1.21-.75,1.31.93,1.49,1.85A3,3,0,0,1,459.48,636.1Z"/><path class="cls-98" d="M837.94,664c.71,3.61-2.23.87-3.07,1.76L830,667.14C831.56,663.37,835.18,664.74,837.94,664Z"/><path class="cls-99" d="M1020.6,467c-.24,1.32,1.63,2.61,0,3.95l-3.26-.05-1.29-1.26Z"/><path class="cls-94" d="M673.11,879.22c1.69,1.18,2.15,3.07,2.77,4.86C673.83,883.1,670.05,883.11,673.11,879.22Z"/><path class="cls-100" d="M585.76,509.88l-2.11,4.85c-1.79-1.87-1.16-3.41.36-4.87Z"/><path class="cls-101" d="M665.25,505.18c2,1.58,2,3.13-.06,4.65C664.78,508.27,662.76,506.7,665.25,505.18Z"/><path class="cls-102" d="M683.91,545.68q.83-2.35,1.67-4.72C687.87,543.55,687.47,545.17,683.91,545.68Z"/><path class="cls-103" d="M676.17,547.26c.62-1.34,1.79-1.59,3.1-1.57-.17,1.19.05,3-.59,3.42C677.35,549.87,676.81,548.21,676.17,547.26Z"/><path class="cls-104" d="M841.31,778c2.58.54,2.78-2.69,4.81-3C845.88,778.11,845.61,781.23,841.31,778Z"/><path class="cls-105" d="M214.86,368.16c11.68-6.84,20.95-16.3,29.31-26.76,1.37-.09,1.85,3.9,4,.69,1.87-2.75,4.72-2.52,7.66-1.34-1.61,8-7.59,12.16-13.77,15.85-7.07,4.21-14.46,7.86-21.72,11.73C218.52,369.32,216.63,370.37,214.86,368.16Z"/><path class="cls-106" d="M429.78,284c1.13,1.77,3.08,1.17,4.67,1.62-1.38,1.57-3.25,1.36-5,1.33-17.74-.25-35.48-.32-53,3,4.7-5.12,11.56-5.56,17.48-6.38C405.72,281.93,417.85,281.2,429.78,284Z"/><path class="cls-107" d="M260.37,274.79l2.55-9.82c.54,2.47,1.27,4.92,1.56,7.42C264.88,275.92,263.11,276.32,260.37,274.79Z"/><path class="cls-108" d="M358.23,299.52a8.93,8.93,0,0,1,4.4-4.75l3.26.08C364.51,298.33,361.24,298.71,358.23,299.52Z"/><path class="cls-109" d="M365.89,294.85l-3.26-.08c1.74-2.15,3.06-5,6.63-4.28C369.3,292.85,366.63,293.1,365.89,294.85Z"/><path class="cls-99" d="M306.6,606.24c.06,2.4,1,5-1.9,6.6C302.76,609.9,305.22,608.22,306.6,606.24Z"/><path class="cls-110" d="M368.21,816.84c.42,1-.36,1.34-1,1.44a2,2,0,0,1-2.46-2c-.06-.94-.11-2.2,1.37-2.07S367.62,815.84,368.21,816.84Z"/><path class="cls-111" d="M348.65,280.93c-.94-1.48-3.21-2.59-1.36-4.85l4.67,0-.06,3C349.88,278,348.73,278.52,348.65,280.93Z"/><path class="cls-112" d="M181,397.44c.09-2.61.62-5,2.07-4.94,2.51.13,1.17,2,.36,3.14A12.7,12.7,0,0,1,181,397.44Z"/><path class="cls-113" d="M616.89,922.51l13.9.45,7.94,3C633.44,927.85,622.66,926.14,616.89,922.51Z"/><path class="cls-114" d="M638.73,926l-7.94-3L634,921.4c2.87.42,5.65,1.07,8,2.94C640.72,924.55,639.43,924.68,638.73,926Z"/><path class="cls-115" d="M643.4,933.78c-2.14-.07-4.54.46-5.51-2.43,2.3-1.6,3.81.46,5.59,1A9.32,9.32,0,0,0,643.4,933.78Z"/><path class="cls-116" d="M643.4,933.78a9.32,9.32,0,0,1,.08-1.4c2.34-.26,2.85,1.71,3.74,3.15.1.16-.3.9-.53.93C644.69,936.73,644.63,934.53,643.4,933.78Z"/><path class="cls-117" d="M785.31,1033.48c4.48-1.49,3.94-6.2,6-9.27,5.28,5.93,3-4.62,6.33-2.91,1.11,14.66-5.73,23-15.44,21.49l1.58-3.1-.12.09c2.25.39,4-.42,4.64-2.59C788.93,1034.86,785.76,1035.16,785.31,1033.48Z"/><path class="cls-118" d="M783.73,1039.69l-1.58,3.1c-3.23,2.59-2.84-.44-3.31-2.13C780.21,1039,782,1039.33,783.73,1039.69Z"/><path class="cls-119" d="M1008.11,486.49c-.46-5.07,2.44-8.32,6-11.18.57.61,1.15,1.21,1.73,1.82l-1.51,1.84c-2.21,1.59-.89,4.14-1.64,6.13l-.77,1.35h-3.08l-.39.1Z"/><path class="cls-120" d="M1014.38,479l1.51-1.84,4.53-3.15,2,.17c-.27,4.09-3.55,5.75-6.33,7.81A3,3,0,0,1,1014.38,479Z"/><path class="cls-121" d="M1001.86,508.32c-3.63-3.78-3.63-3.78.87-10.6,2.63,4-2.5,7.07-1,10.68Z"/><path class="cls-122" d="M1008.89,486.45H1012c-.88,2.81-.1,6.54-4,8C1006,491.16,1010.21,489.22,1008.89,486.45Z"/><path class="cls-123" d="M1014.38,479a3,3,0,0,0,1.74,3l-3.38,3.14C1013.49,483.11,1012.17,480.56,1014.38,479Z"/><path class="cls-124" d="M464,565.82c.32-8.92,5.9-15.88,9.34-23.52,4.06-9,8.59-18.12,17.18-26.13-1.76,6.85,2.81,12.36,0,18.33-3.62-1.79-7.37-6-10.54.58A66.61,66.61,0,0,1,467.31,566C466.2,566.14,465,567.67,464,565.82Z"/><path class="cls-93" d="M487.41,578.25c2.8-7,4.83-14.52,12.92-20.39-2,11.21-3.66,20.87-5.45,31-3.74-1.24-5.28-3.77-5.83-7.17C488.51,580.57,488,579.41,487.41,578.25Z"/><path class="cls-125" d="M540.37,474c2.79-8.91,7.89-17.07,8.12-26.83.09-3.63,2.8-1.57,4.55-1.15l-.07-.07c-.51,6.4,3.69,13.26-2.28,19.16-2.67,2.64-4.72,5.93-7,8.92Z"/><path class="cls-126" d="M497.85,547.62c-1.1-12.22,6.58-21.27,11.24-33.65C509.67,528.15,504,538,497.85,547.62Z"/><path class="cls-127" d="M465.88,545.85c-3.81,11.74-9.86,22.61-13.34,34.5-.08-13.38,5.52-24.85,11.79-36.09Z"/><path class="cls-127" d="M529.68,490C525.93,499,520,505.11,516,512.55,511.68,507,518.08,496.18,529.68,490Z"/><path class="cls-128" d="M496.79,500.39c0-4-.13-8.07.07-12.09.08-1.67-1-4.92,2.53-4.1,2.42.57,5.86,1.17,4.62,5.51C502.85,493.78,500.09,496.87,496.79,500.39Z"/><path class="cls-128" d="M543.81,421.56c3.1,7.25-.49,12.13-.7,18C540.2,435.73,540.2,435.73,543.81,421.56Z"/><path class="cls-129" d="M479.94,535.08c3.17-6.57,6.92-2.37,10.54-.58l-4.32,5.08c-.58-1.85-.47-4.12-3.11-5V545.5C479.07,542.9,483.34,537.85,479.94,535.08Z"/><path class="cls-93" d="M553,446a21.11,21.11,0,0,0-.26-2.26c-.57-2.54-.88-5.3,2-6.37,1.64-.61,2.33,1.48,2.66,3,.8,3.66-.1,6-4.46,5.57Z"/><path class="cls-125" d="M483.05,545.5V534.59c2.64.87,2.53,3.14,3.11,5C485.4,541.7,487.63,545.39,483.05,545.5Z"/><path class="cls-130" d="M540.37,474l3.28,0c-.15,3.45-2.57,5.15-5.45,7.07C536.76,477.83,538.51,475.89,540.37,474Z"/><path class="cls-131" d="M465.88,545.85l-1.55-1.59c1.67-2.75,2.83-5.9,6.6-8.23C470.65,540.74,467.65,543,465.88,545.85Z"/><path class="cls-92" d="M464.05,572.18c-.37,2.68,1.55,4.72,2.22,7.51-8.24.37-3.43-4.63-3.43-7.48Z"/><path class="cls-85" d="M539,499c0,1.55-.08,3.09-.13,4.64l-4.8,0-.75.05,4.11-7.78A3.19,3.19,0,0,0,539,499Z"/><path class="cls-132" d="M487.41,578.25c.55,1.16,1.1,2.32,1.64,3.49-1.56.06-2.13,4.12-4.05,1.47C483.47,581.09,484.21,578.75,487.41,578.25Z"/><path class="cls-133" d="M464.05,572.18l-1.21,0c-.18-2.24-.79-4.55,1.17-6.39,1,1.85,2.19.32,3.3.15C466.94,568.42,466.28,570.71,464.05,572.18Z"/><path class="cls-134" d="M453.83,624.78c2.71,3.9.83,5.42-.58,7.44C450.48,629.18,453.44,627.93,453.83,624.78Z"/><path class="cls-135" d="M564.64,425.74c-.61-1.93-2.73-3.71-.38-5.41.41-.29,1.72-.18,1.89.14C567.26,422.56,565.2,424,564.64,425.74Z"/><path class="cls-93" d="M492.6,590c.17,3.81-.14,6-3.09,8.48C489.8,595.32,489.31,593,492.6,590Z"/><path class="cls-136" d="M494.05,512.76c-.38-4.17-.16-6.3,3.28-7.24C497.45,508.33,496.05,510.06,494.05,512.76Z"/><path class="cls-137" d="M494.61,547.56c1,3.2.85,5.11-1.47,6.89C491.51,551.69,493.33,550.19,494.61,547.56Z"/><path class="cls-138" d="M508.47,480.84c-1-2.22-.84-3.86.47-5.29.52-.57,1.47-.8,1.69.13C511.08,477.53,510.09,479,508.47,480.84Z"/><path class="cls-139" d="M475,572l1.83-5.61c1.93,2.15,1.74,4-.17,5.79Z"/><path class="cls-140" d="M539,499a3.19,3.19,0,0,1-1.57-3.11c2.19-1.65,3.72-1.31,4.42,1.5Z"/><path class="cls-141" d="M533.32,503.63l.75-.05c0,3.28-1.94,5.1-4.7,6.31C529.58,507.11,531.84,505.62,533.32,503.63Z"/><path class="cls-91" d="M499.22,476.44c-1.08-2.34-.55-4,1-4.3s.91,1.14.55,1.93A23.58,23.58,0,0,1,499.22,476.44Z"/><path class="cls-91" d="M460.09,589.82c-.85-1.77-1-3.94.4-4.17,2.56-.42.5,1.53.59,2.37C461.13,588.52,460.51,589.09,460.09,589.82Z"/><path class="cls-142" d="M475,572l1.66.18c-.4,1.55-.11,4.34-2.5,3.49C472.51,575.09,474,573.13,475,572Z"/><path class="cls-140" d="M669.76,530.66c4.29,3,5.41,6.28,2.8,10.49-.82,1.33-2.57,1.79-3.16.7C667.48,538.29,668.06,534.6,669.76,530.66Z"/><path class="cls-131" d="M673,516.41c3.76,2.22,6.14,3.71,5.89,7.09-.09,1.2-1.28,2.06-2.11,1.67C673.52,523.64,673.74,520.46,673,516.41Z"/><path class="cls-143" d="M684.05,466.31c1.8-1.4,2.15-4.17,4.63-4.95-1,3.76-1.41,7.78-4.65,10.71C681.76,469.82,684.36,468.13,684.05,466.31Z"/><path class="cls-142" d="M743.09,438.16l3.45-1.69c2.08,1.8,1.08,3.29-.79,4C744.11,441.1,742.07,441.1,743.09,438.16Z"/><path class="cls-91" d="M690.08,458.5l-1.55-1.64a5.25,5.25,0,0,1,4.78-3.21A4.79,4.79,0,0,1,690.08,458.5Z"/><path class="cls-144" d="M685.38,485.7c0,1.29-.35,2.49-1.72,2.89-.89.26-1.22-.48-1.19-1.25a2.85,2.85,0,0,1,1.76-2.91C685.15,484.13,685.31,485,685.38,485.7Z"/><path class="cls-145" d="M680.32,510.45c-.34.37-.71,1.12-1.29,1.33-1,.36-1.3-.51-1.13-1.23A2.44,2.44,0,0,1,679,509C679.81,508.69,680.37,509.27,680.32,510.45Z"/><path class="cls-85" d="M687,502.51c.16-2.92,0-4.21.38-5.3.32-.89,1.29-.42,1.66.21C689.84,498.76,688.81,499.72,687,502.51Z"/><path class="cls-146" d="M675.62,485c2.18,2.3-.53,3.33.11,4.93C673.94,488.15,674.92,486.83,675.62,485Z"/><path class="cls-124" d="M588.76,575.2c-1.17,5.15-4.67,9.53-5,14.93-.14,2-1.56,2.6-3,3-1.62.43-2.06-1.15-2.74-2.17-4.42-6.69-1.73-13.45.6-19.73,1.5-4.07,3.13-8,3.82-12.41,3.71.71,1.46,4.85,3.46,6.07,3.88,2.36,2.84-3.42,5.68-3.53,1.22,3.15.2,6.22-.9,9.29C588.6,571.58,588.88,573.48,588.76,575.2Z"/><path class="cls-124" d="M563.15,605c.63,8.6-.93,16.9-2.7,25.13a15,15,0,0,1-5.37,8.31c-1.9,1.53-4.63,2.53-7.1.51s-1.36-4-.45-6.69C551,622.21,558.91,614.81,563.15,605Z"/><path class="cls-127" d="M589.16,518.47c.55,13.31-6.5,24.11-11.48,35.61C579.06,541.44,582.11,529.34,589.16,518.47Z"/><path class="cls-125" d="M607.47,505.1c1.17-2,1.6-4.7,4.79-4.55l-.08-.09c1,9.9-4.57,17.85-7.89,26.47l-1.74.06c.54-2.39-.76-3.73-2.7-4.7,0-2,1.44-4.08,0-6.14,1.77-1.37,4.5-1.79,4.69-4.73C605.54,509.31,606.51,507.21,607.47,505.1Z"/><path class="cls-127" d="M628.05,478.78c-2.6,5.4-3.14,11.86-8.37,16.47-4.67-8.89.87-13.56,6.54-18.17Z"/><path class="cls-125" d="M574.87,626.82c.18-6.44-.6-13,2.15-19,4.89,4.73,3.93,13.76-2.2,18.86Z"/><path class="cls-147" d="M639,443.67c-.81,6.4-.55,13.24-7.93,18.9A41.68,41.68,0,0,1,639,443.67Z"/><path class="cls-141" d="M618.17,455.23c-1.31-8.28,6.45-10,10.5-14.39-.84,6.12-6.32,9.38-8.84,14.45Z"/><path class="cls-138" d="M570.13,586.22c-1.12,4.65.51,10.29-5.6,14.57a44.83,44.83,0,0,1,3.91-14.59Z"/><path class="cls-148" d="M628.05,478.78l-1.83-1.7c1-3,1-6.4,4.54-9.18C631.84,472.64,630.46,475.83,628.05,478.78Z"/><path class="cls-92" d="M574.82,626.7c-.56,1.13-2.38,2.57-2.49,1.66-.4-3.14-3-6.42-.43-10.09,2.69,2.64.07,6.52,3,8.55Z"/><path class="cls-132" d="M570.27,578.44a19.08,19.08,0,0,1,3.62-11.36c.72,4.93-2,7.89-2.22,11.36C571.2,578.43,570.73,578.44,570.27,578.44Z"/><path class="cls-130" d="M604.61,472.5c-.51,2.84-1.8,5-5.73,5.86l4-7.43Z"/><path class="cls-149" d="M563.93,544.16l3.1,3.1c-.1,1.42-.07,4.08-1.22,3.73C562.25,549.92,564.57,546.5,563.93,544.16Z"/><path class="cls-79" d="M599.89,516.15c1.4,2.06,0,4.1,0,6.14C596.59,520.23,594.41,518.17,599.89,516.15Z"/><path class="cls-150" d="M607.47,505.1c-1,2.11-1.93,4.21-2.89,6.32C600.91,507.19,604,506.06,607.47,505.1Z"/><path class="cls-142" d="M570.27,578.44c.46,0,.93,0,1.4,0,.13,2.72,0,5.39-1.54,7.78l-1.69,0Z"/><path class="cls-134" d="M612.26,500.55a4.65,4.65,0,0,1,2.49-4.51c-.44,1.65,3.34,5.11-2.57,4.42Z"/><path class="cls-143" d="M618.17,455.23l1.66.06-5,7.57C614.93,458.37,615.85,456.47,618.17,455.23Z"/><path class="cls-151" d="M588.76,575.2c.12-1.72-.16-3.62,1.87-4.56C592.91,573.35,592.16,574.82,588.76,575.2Z"/><path class="cls-101" d="M602.55,527l1.74-.06c-.74,1.48-1.48,3-2.6,5.18C600.59,529.42,601.13,528.11,602.55,527Z"/><path class="cls-152" d="M604.61,472.5l-1.71-1.57,2.4-3.41C606.71,469.41,606.05,471,604.61,472.5Z"/><path class="cls-153" d="M832,766.9l-8,6.76c3.9-6.85-6.68-6.85-3.06-12.71C823.38,765.24,829.67,762.37,832,766.9Z"/><path class="cls-153" d="M811.73,759.26,810,761c-2.75-3.4-.87-7.38-1.37-11.06,1.73,2,3.55,3.71,6.49,3.23.06,1,.12,1.89.17,2.83C811.4,754.11,810.55,755.58,811.73,759.26Z"/><path class="cls-154" d="M815.14,753.12c-2.94.48-4.76-1.28-6.49-3.23l-.12-1.58,1.87-.21c1.56,2.06,4.5,1.16,6.12,2.67C818.34,752.48,818.49,754,815.14,753.12Z"/><path class="cls-155" d="M811.73,759.26c-1.18-3.68-.33-5.15,3.58-3.31,2.2,1.33,2.31,3,.81,4.92C814.5,760.77,812.74,761,811.73,759.26Z"/><path class="cls-156" d="M810.4,748.1l-1.87.21c-2.44-1.6-.14-3.12.07-4.67,3,.11,2.28-1.56,1.55-3.24C818.05,742.71,809,745.58,810.4,748.1Z"/><path class="cls-157" d="M810.15,740.4c.73,1.68,1.46,3.35-1.55,3.24-2.07-1.67-2.07-3.59,0-4.95C809.87,737.89,810,739.47,810.15,740.4Z"/><path class="cls-158" d="M818.08,779.37c-.18,3.93-2.15,5.65-6.09,4.91,1.7-1.79,2.61-4.06,3.83-6.13C817.51,775.28,817.68,778.17,818.08,779.37Z"/><path class="cls-159" d="M800.74,790.3c-3.09-.19-6.47,1.21-9.1-1.6,2.58-5.91,4.94,2.45,7.47.12Z"/><path class="cls-160" d="M811.51,787c-.82,2.43-2.81,1.72-4.55,1.71.11-1.68.22-3.36.33-5C810,783.67,809.73,786.53,811.51,787Z"/><path class="cls-161" d="M800.74,790.3l-1.63-1.48,3.41-5.48v6.84Z"/><path class="cls-162" d="M1020.42,474l-4.53,3.15c-.58-.61-1.16-1.21-1.73-1.82.84-1.63,3.68-1.78,3.23-4.37l3.26.05C1020.58,472,1020.5,473,1020.42,474Z"/><path class="cls-163" d="M785.31,1033.48c.45,1.68,3.62,1.38,2.94,3.71-.63,2.17-2.39,3-4.64,2.59C778.26,1036.08,782.07,1034.86,785.31,1033.48Z"/></g></g></svg>